<svg width="557" height="291" viewBox="0 0 557 291" fill="none" xmlns="http://www.w3.org/2000/svg">
<g clip-path="url(#clip0_496_9363)">
<rect width="557" height="291" fill="#746BE6"/>
<g clip-path="url(#clip1_496_9363)">
<path d="M161.288 132.059C167.745 132.059 171.398 135.85 171.398 140.995C171.398 144.41 169.337 147.171 166.576 148.11C169.805 148.907 172.428 151.854 172.428 155.974C172.428 161.353 168.403 165.24 162.18 165.24H149.356V132.059H161.288ZM160.305 145.769C163.252 145.769 165.031 144.133 165.031 141.606C165.031 139.078 163.396 137.485 160.258 137.485H155.723V145.769H160.31H160.305ZM160.959 159.856C164.092 159.856 165.966 158.22 165.966 155.55C165.966 152.879 164.283 151.105 161.054 151.105H155.723V159.856H160.963H160.959Z" fill="white"/>
<path d="M174.016 165.24V132.059H180.239V165.24H174.016Z" fill="white"/>
<path d="M205.556 153.729C205.556 160.796 200.363 165.941 193.482 165.941C186.6 165.941 181.407 160.796 181.407 153.729C181.407 146.661 186.6 141.516 193.482 141.516C200.363 141.516 205.556 146.618 205.556 153.729ZM199.333 153.729C199.333 149.375 196.524 147.176 193.482 147.176C190.439 147.176 187.631 149.375 187.631 153.729C187.631 158.082 190.439 160.281 193.482 160.281C196.524 160.281 199.333 158.082 199.333 153.729Z" fill="white"/>
<path d="M212.309 153.728C212.309 157.891 215.023 160.232 218.203 160.232C221.384 160.232 222.977 158.125 223.492 156.351L228.967 158.177C227.937 162.016 224.336 165.945 218.203 165.945C211.417 165.945 206.086 160.8 206.086 153.732C206.086 146.665 211.327 141.52 218.017 141.52C224.288 141.52 227.846 145.401 228.828 149.288L223.258 151.157C222.696 149.24 221.246 147.275 218.156 147.275C215.066 147.275 212.304 149.569 212.304 153.732L212.309 153.728Z" fill="white"/>
<path d="M242.915 151.902L252.32 165.24H244.694L238.609 156.441L236.034 159.155V165.24H229.811V132.059H236.034V150.781L243.988 142.216H252.129L242.911 151.902H242.915Z" fill="white"/>
<path d="M270.87 142.215L275.83 157.051L280.088 142.215H286.264L279.058 165.239H272.835L267.456 149.516L262.167 165.239H255.848L248.5 142.215H255.052L259.31 157.003L264.318 142.215H270.87Z" fill="white"/>
<path d="M309.092 153.729C309.092 160.796 303.899 165.941 297.017 165.941C290.136 165.941 284.943 160.796 284.943 153.729C284.943 146.661 290.136 141.516 297.017 141.516C303.899 141.516 309.092 146.618 309.092 153.729ZM302.869 153.729C302.869 149.375 300.06 147.176 297.017 147.176C293.975 147.176 291.166 149.375 291.166 153.729C291.166 158.082 293.975 160.281 297.017 160.281C300.06 160.281 302.869 158.082 302.869 153.729Z" fill="white"/>
<path d="M324.3 148.394C323.599 148.255 322.989 148.208 322.431 148.208C319.25 148.208 316.489 149.753 316.489 154.712V165.242H310.265V142.218H316.303V145.633C317.705 142.59 320.89 142.027 322.855 142.027C323.37 142.027 323.837 142.075 324.305 142.123V148.394H324.3Z" fill="white"/>
<path d="M338.392 151.902L347.796 165.24H340.17L334.085 156.441L331.51 159.155V165.24H325.287V132.059H331.51V150.781L339.465 142.216H347.605L338.387 151.902H338.392Z" fill="white"/>
<path d="M351.444 157.658C351.582 159.484 352.941 161.168 355.655 161.168C357.715 161.168 358.697 160.09 358.697 158.874C358.697 157.844 357.996 157 356.218 156.628L353.175 155.927C348.73 154.945 346.718 152.279 346.718 149.05C346.718 144.93 350.366 141.516 355.331 141.516C361.883 141.516 364.081 145.679 364.363 148.159L359.169 149.327C358.983 147.968 358.001 146.237 355.378 146.237C353.742 146.237 352.431 147.219 352.431 148.531C352.431 149.651 353.275 150.357 354.539 150.591L357.815 151.292C362.355 152.226 364.649 154.987 364.649 158.359C364.649 162.103 361.749 165.941 355.712 165.941C348.788 165.941 346.399 161.449 346.117 158.826L351.453 157.658H351.444Z" fill="white"/>
</g>
<g clip-path="url(#clip2_496_9363)">
<path fill-rule="evenodd" clip-rule="evenodd" d="M-48.6213 90.2773L-52.9987 88.5746L-54.7684 88.6199L-57.956 90.5278L-57.6608 91.3585L-53.2677 93.0244L-51.5291 92.9746L-48.3572 91.1035L-48.6213 90.2773ZM-29.8199 97.5899L-33.848 96.0235L-35.5236 96.0753L-38.6621 97.8738L-38.4376 98.648L-34.3936 100.182L-32.7458 100.126L-29.624 98.3606L-29.8199 97.5899ZM-33.8942 81.57L-38.2188 79.749L-40.007 79.7848L-43.3252 81.7708L-43.0714 82.6466L-38.7288 84.4285L-36.9731 84.3881L-33.6729 82.4413L-33.8942 81.57ZM-12.4853 104.332L-16.2041 102.886L-17.7947 102.943L-20.8817 104.643L-20.7185 105.368L-16.9831 106.784L-15.4176 106.723L-12.3476 105.053L-12.4853 104.332ZM-15.3397 89.3842L-19.3122 87.7112L-21.0038 87.7546L-24.2653 89.6236L-24.0818 90.4387L-20.0908 92.0766L-18.4278 92.029L-15.1848 90.1951L-15.3397 89.3842ZM-18.5628 72.5056L-22.8262 70.5574L-24.6324 70.5826L-28.0894 72.6517L-27.8813 73.576L-23.597 75.4819L-21.8232 75.4512L-18.3872 73.4243L-18.5628 72.5056ZM3.548 110.568L0.104234 109.229L-1.40915 109.291L-4.44322 110.902L-4.33286 111.581L-0.872054 112.893L0.617931 112.829L3.63507 111.245L3.548 110.568ZM1.74072 96.5774L-1.92093 95.0352L-3.52577 95.0849L-6.72932 96.8493L-6.60548 97.6101L-2.92445 99.1205L-1.34592 99.0674L1.83876 97.3347L1.74072 96.5774ZM18.4207 116.353L15.2232 115.109L13.7797 115.175L10.7989 116.705L10.8636 117.344L14.0787 118.563L15.5009 118.496L18.4644 116.99L18.4207 116.353ZM-0.289649 80.8555L-4.1992 79.069L-5.90678 79.103L-9.29938 81.0472L-9.15975 81.9056L-5.2289 83.6545L-3.55033 83.6156L-0.179458 81.7093L-0.289649 80.8555ZM17.5162 103.221L14.13 101.795L12.604 101.85L9.45953 103.519L9.53217 104.232L12.9376 105.629L14.44 105.571L17.5647 103.93L17.5162 103.221ZM32.255 121.734L29.2772 120.576L27.8988 120.644L24.9713 122.101L24.9967 122.703L27.9914 123.839L29.3507 123.769L32.261 122.334L32.255 121.734ZM16.504 88.5297L12.9057 86.8856L11.2873 86.9269L7.96083 88.7589L8.04196 89.559L11.6616 91.1694L13.2538 91.1239L16.559 89.3256L16.504 88.5297ZM32.1302 109.376L28.9895 108.053L27.5357 108.112L24.4506 109.696L24.4788 110.365L27.6386 111.662L29.0713 111.6L32.137 110.042L32.1302 109.376ZM45.1559 126.752L42.3765 125.671L41.0569 125.742L38.1828 127.131L38.1737 127.7L40.9702 128.761L42.2718 128.688L45.1293 127.319L45.1559 126.752ZM15.3641 71.9847L11.5259 70.0767L9.80252 70.1007L6.27121 72.1243L6.36325 73.0289L10.2254 74.8967L11.9194 74.8672L15.4263 72.8841L15.3641 71.9847ZM31.9912 95.6066L28.6689 94.0887L27.1303 94.136L23.8703 95.8673L23.9016 96.6152L27.2456 98.103L28.7599 98.0517L31.9988 96.3514L31.9912 95.6066ZM45.7068 115.093L42.7864 113.863L41.3977 113.925L38.3717 115.431L38.3616 116.062L41.3014 117.268L42.6704 117.203L45.6774 115.721L45.7068 115.093ZM57.2146 131.442L54.6145 130.431L53.3492 130.503L50.5276 131.832L50.4883 132.37L53.1056 133.363L54.3545 133.288L57.1589 131.979L57.2146 131.442ZM31.8351 80.1724L28.3085 78.4193L26.6758 78.452L23.2192 80.3556L23.2547 81.1971L26.8054 82.9142L28.4107 82.8773L31.8437 81.0095L31.8351 80.1724ZM46.3184 102.154L43.2413 100.748L41.7764 100.8L38.5819 102.44L38.5703 103.142L41.6688 104.52L43.1119 104.465L46.2854 102.852L46.3184 102.154ZM58.3529 120.418L55.6297 119.272L54.3012 119.338L51.3336 120.772L51.2904 121.367L54.0324 122.492L55.343 122.424L58.2917 121.011L58.3529 120.418ZM68.5108 135.836L66.0731 134.888L64.8585 134.962L62.0888 136.233L62.0231 136.744L64.4774 137.675L65.6773 137.599L68.4303 136.345L68.5108 135.836ZM31.6593 62.7504L27.9013 60.7125L26.1622 60.7256L22.4837 62.8336L22.5236 63.7877L26.3086 65.7826L28.0175 65.7636L31.669 63.6986L31.6593 62.7504ZM47.001 87.7113L43.7494 86.0947L42.1991 86.1346L38.8164 87.9308L38.8035 88.7166L42.0789 90.3006L43.6049 90.2567L46.9638 88.493L47.001 87.7113ZM59.6116 108.228L56.7534 106.922L55.3551 106.979L52.2255 108.537L52.1775 109.196L55.0566 110.477L56.4351 110.417L59.5439 108.885L59.6116 108.228ZM70.1605 125.391L67.6155 124.319L66.3424 124.388L63.4325 125.757L63.3604 126.319L65.9237 127.372L67.1802 127.302L70.0717 125.952L70.1605 125.391ZM79.1153 139.96L76.8251 139.069L75.6565 139.145L72.938 140.364L72.849 140.85L75.1555 141.724L76.3105 141.648L79.0124 140.445L79.1153 139.96ZM47.7679 71.4872L44.321 69.6178L42.6747 69.6408L39.0799 71.6206L39.0655 72.5065L42.5392 74.3374L44.1583 74.3094L47.7262 72.3682L47.7679 71.4872ZM61.0109 94.6756L58.0034 93.1805L56.5278 93.2264L53.218 94.9257L53.1643 95.6611L56.1952 97.1268L57.6489 97.0779L60.9355 95.4079L61.0109 94.6756ZM71.9785 113.88L69.3167 112.663L67.9797 112.724L64.9143 114.206L64.8344 114.827L67.5168 116.021L68.8358 115.958L71.8806 114.499L71.9785 113.88ZM81.2106 130.045L78.8268 129.041L77.6049 129.111L74.7512 130.421L74.6541 130.954L77.0557 131.939L78.2624 131.867L81.0983 130.576L81.2106 130.045ZM89.0887 143.839L86.9331 143.001L85.8082 143.077L83.1392 144.248L83.0304 144.71L85.202 145.534L86.3143 145.457L88.9672 144.301L89.0887 143.839ZM98.4867 147.495L96.454 146.704L95.3692 146.781L92.7494 147.907L92.6228 148.348L94.6708 149.125L95.7436 149.047L98.3481 147.935L98.4867 147.495ZM91.5737 134.409L89.3362 133.467L88.1616 133.538L85.3631 134.793L85.244 135.299L87.4991 136.225L88.6596 136.151L91.4406 134.914L91.5737 134.409ZM83.5129 119.151L81.0276 118.015L79.747 118.078L76.7444 119.492L76.6374 120.079L79.1422 121.193L80.4063 121.128L83.3892 119.735L83.5129 119.151ZM73.9922 101.129L71.2022 99.7416L69.7949 99.7926L66.5566 101.404L66.4679 102.094L69.2807 103.455L70.6684 103.401L73.8838 101.816L73.9922 101.129ZM62.5761 79.5187L59.4029 77.7975L57.8407 77.8289L54.3282 79.6939L54.2683 80.5197L57.4674 82.2058L59.0053 82.1704L62.4912 80.3398L62.5761 79.5187ZM101.312 138.51L99.208 137.624L98.0772 137.697L95.3323 138.901L95.1943 139.382L97.3154 140.253L98.4332 140.178L101.161 138.99L101.312 138.51ZM94.2957 124.078L91.9705 123.015L90.7417 123.081L87.8003 124.431L87.6694 124.987L90.0142 126.03L91.2278 125.963L94.1499 124.632L94.2957 124.078ZM86.0542 107.125L83.4591 105.835L82.1139 105.89L78.9457 107.421L78.8271 108.071L81.4444 109.337L82.7715 109.28L85.9174 107.772L86.0542 107.125ZM76.2352 86.927L73.3046 85.3374L71.8185 85.3757L68.3868 87.1376L68.2878 87.9091L71.2441 89.4674L72.7081 89.4256L76.1138 87.6946L76.2352 86.927ZM64.338 62.4545L60.9804 60.4607L59.3206 60.4734L55.5792 62.5339L55.5112 63.4669L58.8988 65.4196L60.5309 65.4014L64.2423 63.3821L64.338 62.4545ZM110.48 142.371L108.498 141.536L107.408 141.61L104.716 142.767L104.561 143.226L106.56 144.046L107.638 143.971L110.314 142.829L110.48 142.371ZM104.399 128.694L102.218 127.698L101.037 127.766L98.1555 129.058L98.0043 129.585L100.203 130.564L101.37 130.494L104.233 129.22L104.399 128.694ZM97.2909 112.71L94.871 111.507L93.5829 111.566L90.4829 113.025L90.3387 113.638L92.7803 114.819L94.0518 114.758L97.1302 113.322L97.2909 112.71ZM88.8739 93.7817L86.1589 92.309L84.7421 92.3531L81.3892 94.0217L81.2575 94.7453L83.9971 96.189L85.3939 96.142L88.7216 94.5015L88.8739 93.7817ZM113.884 133.029L111.835 132.092L110.699 132.162L107.875 133.401L107.706 133.902L109.773 134.821L110.896 134.75L113.702 133.528L113.884 133.029ZM78.7486 71.0117L75.6628 69.1793L74.0885 69.2011L70.439 71.1391L70.3277 72.0071L73.4427 73.8024L74.992 73.7758L78.6124 71.8749L78.7486 71.0117ZM107.785 117.927L105.523 116.802L104.287 116.863L101.254 118.256L101.087 118.836L103.37 119.94L104.59 119.877L107.603 118.505L107.785 117.927ZM100.602 100.143L98.0803 98.7749L96.7267 98.8235L93.4506 100.408L93.2906 101.088L95.837 102.43L97.1722 102.378L100.424 100.82L100.602 100.143ZM92.0203 78.8925L89.1746 77.2027L87.6779 77.2324L84.1176 79.0604L83.9701 79.8705L86.8442 81.5272L88.3182 81.4932L91.8501 79.6982L92.0203 78.8925ZM117.607 122.809L115.488 121.756L114.301 121.82L111.331 123.151L111.146 123.7L113.285 124.735L114.458 124.67L117.407 123.357L117.607 122.809ZM111.516 106.062L109.167 104.788L107.871 104.841L104.669 106.348L104.485 106.988L106.858 108.239L108.137 108.184L111.315 106.7L111.516 106.062ZM126.819 127.389L124.83 126.4L123.688 126.465L120.781 127.74L120.58 128.262L122.588 129.233L123.717 129.167L126.604 127.909L126.819 127.389ZM104.283 86.1743L101.65 84.611L100.224 84.6474L96.7506 86.3762L96.5723 87.1342L99.2324 88.6674L100.638 88.6273L104.084 86.9285L104.283 86.1743ZM121.696 111.583L119.502 110.393L118.261 110.45L115.13 111.886L114.926 112.491L117.143 113.66L118.369 113.601L121.476 112.186L121.696 111.583ZM95.5539 62.172L92.5644 60.2204L90.9789 60.2326L87.1839 62.2476L87.0174 63.1607L90.0391 65.0727L91.5993 65.0552L95.3618 63.0794L95.5539 62.172ZM115.648 92.9227L113.205 91.472L111.844 91.5145L108.454 93.1535L108.249 93.8649L110.718 95.288L112.061 95.2428L115.425 93.6309L115.648 92.9227ZM131.215 116.746L129.162 115.632L127.969 115.691L124.909 117.063L124.687 117.636L126.762 118.73L127.94 118.669L130.979 117.316L131.215 116.746ZM108.398 70.5566L105.646 68.7599L104.139 68.781L100.443 70.6785L100.243 71.5291L103.026 73.2905L104.51 73.265L108.175 71.4023L108.398 70.5566ZM126.209 99.194L123.937 97.8449L122.634 97.8916L119.325 99.4493L119.099 100.119L121.397 101.443L122.683 101.394L125.966 99.8611L126.209 99.194ZM120.248 78.2922L117.706 76.6324L116.271 76.6609L112.67 78.4532L112.442 79.2481L115.014 80.8763L116.429 80.8436L120 79.0829L120.248 78.2922ZM136.05 105.038L133.931 103.779L132.682 103.83L129.451 105.313L129.207 105.945L131.351 107.18L132.584 107.127L135.79 105.667L136.05 105.038ZM131.215 85.4513L128.859 83.9134L127.49 83.9485L123.981 85.6457L123.729 86.3907L126.114 87.8995L127.465 87.8612L130.945 86.1931L131.215 85.4513ZM113.03 52.9794L110.147 50.9009L108.55 50.902L104.601 52.9992L104.375 53.9601L107.293 55.9967L108.864 55.9896L112.778 53.9346L113.03 52.9794ZM141.395 92.0966L139.206 90.6673L137.896 90.7078L134.475 92.3184L134.204 93.0187L136.421 94.4215L137.713 94.3776L141.107 92.7936L141.395 92.0966ZM125.403 61.9014L122.753 59.9907L121.237 60.0025L117.396 61.9742L117.14 62.8681L119.824 64.741L121.317 64.7243L125.123 62.7904L125.403 61.9014ZM150.868 98.2805L148.829 96.9494L147.575 96.9946L144.237 98.5265L143.951 99.1858L146.016 100.493L147.255 100.445L150.566 98.9373L150.868 98.2805ZM136.8 70.1204L134.356 68.3578L132.913 68.378L129.177 70.2376L128.896 71.0716L131.373 72.7998L132.795 72.7754L136.498 70.9501L136.8 70.1204ZM147.334 77.7163L145.072 76.0853L143.696 76.1129L140.06 77.8707L139.758 78.6515L142.051 80.2514L143.409 80.2202L147.013 78.4926L147.334 77.7163ZM157.098 84.7568L154.999 83.2434L153.683 83.2775L150.143 84.9437L149.825 85.6761L151.954 87.1616L153.252 87.1241L156.762 85.4858L157.098 84.7568ZM143.07 52.9091L140.533 50.8765L139.008 50.8778L135.015 52.9278L134.698 53.8676L137.273 55.8597L138.775 55.8531L142.73 53.8432L143.07 52.9091ZM153.972 61.643L151.636 59.7711L150.185 59.7823L146.306 61.7123L145.968 62.5877L148.34 64.4232L149.771 64.4072L153.613 62.5137L153.972 61.643ZM164.033 69.7023L161.874 67.9729L160.49 67.9923L156.721 69.8146L156.365 70.6326L158.558 72.3295L159.923 72.3058L163.658 70.5163L164.033 69.7023ZM173.345 77.1632L171.345 75.5605L170.022 75.5865L166.357 77.3115L165.988 78.0781L168.021 79.6513L169.326 79.6213L172.958 77.9257L173.345 77.1632ZM161.441 43.5588L159.028 41.3964L157.494 41.3867L153.339 43.5193L152.957 44.5086L155.411 46.6277L156.922 46.6313L161.035 44.5413L161.441 43.5588ZM171.799 52.8416L169.581 50.8535L168.122 50.8545L164.093 52.8597L163.693 53.779L165.951 55.729L167.389 55.7223L171.378 53.7557L171.799 52.8416ZM181.343 61.3952L179.297 59.5609L177.906 59.5715L173.997 61.4616L173.583 62.3192L175.667 64.1188L177.039 64.1035L180.911 62.2481L181.343 61.3952ZM190.32 43.698L188.23 41.5858L186.764 41.5762L182.576 43.661L182.11 44.6271L184.243 46.6986L185.687 46.7019L189.833 44.6585L190.32 43.698ZM199.301 52.7772L197.376 50.8311L195.979 50.8323L191.921 52.7946L191.446 53.6944L193.411 55.6037L194.789 55.597L198.806 53.6722L199.301 52.7772ZM209.575 34.1922L207.627 31.9471L206.154 31.9257L201.796 34.0947L201.26 35.1108L203.255 37.3121L204.707 37.3264L209.017 35.2019L209.575 34.1922Z" fill="#ED9BE5"/>
<path d="M-57.374 81.1808L-57.1485 77.2406L-57.8183 76.8123L-60.9148 78.8601L-61.6876 80.2367L-61.9449 84.1734L-61.2835 84.6228L-58.156 82.5791L-57.374 81.1808Z" fill="#ED9BE5"/>
<path d="M-56.3806 63.8199L-56.1691 60.1275L-56.8202 59.7577L-59.8226 61.8128L-60.5704 63.135L-60.8116 66.8256L-60.1685 67.215L-57.1364 65.1618L-56.3806 63.8199Z" fill="#ED9BE5"/>
<path d="M-42.8799 71.6913L-42.7573 67.7413L-43.4805 67.3307L-46.7031 69.4618L-47.4826 70.8602L-47.6391 74.8073L-46.9249 75.24L-43.6679 73.1117L-42.8799 71.6913Z" fill="#ED9BE5"/>
<path d="M-55.4485 47.5384L-55.2504 44.0708L-55.8836 43.7533L-58.7978 45.8112L-59.5219 47.0828L-59.7482 50.5499L-59.1227 50.8856L-56.1804 48.8281L-55.4485 47.5384Z" fill="#ED9BE5"/>
<path d="M-42.3407 54.2964L-42.2261 50.5998L-42.9273 50.2483L-46.0485 52.3847L-46.8019 53.7266L-46.9487 57.4221L-46.2557 57.794L-43.1023 55.6587L-42.3407 54.2964Z" fill="#ED9BE5"/>
<path d="M-54.5728 32.238L-54.3863 28.9761L-55.0027 28.7052L-57.8339 30.7622L-58.5357 31.987L-58.7491 35.2495L-58.1398 35.5375L-55.2822 33.4801L-54.5728 32.238Z" fill="#ED9BE5"/>
<path d="M-27.7785 61.8042L-27.7684 57.8473L-28.5487 57.4562L-31.906 59.6764L-32.6909 61.0967L-32.7386 65.0516L-31.9672 65.4658L-28.5725 63.2475L-27.7785 61.8042Z" fill="#ED9BE5"/>
<path d="M-41.8356 38.0036L-41.7283 34.5369L-42.409 34.2379L-45.4343 36.3748L-46.1643 37.6646L-46.3018 41.1316L-45.6295 41.4496L-42.5733 39.3126L-41.8356 38.0036Z" fill="#ED9BE5"/>
<path d="M-53.7482 17.8338L-53.5724 14.7594L-54.173 14.5303L-56.9255 16.5824L-57.6072 17.7635L-57.8079 20.8398L-57.2141 21.0845L-54.4368 19.0305L-53.7482 17.8338Z" fill="#ED9BE5"/>
<path d="M-27.7325 44.3875L-27.723 40.6894L-28.4775 40.3577L-31.7248 42.5804L-32.484 43.9427L-32.5286 47.6408L-31.7821 47.9933L-28.5001 45.7708L-27.7325 44.3875Z" fill="#ED9BE5"/>
<path d="M-41.3616 22.7116L-41.2609 19.454L-41.9217 19.2016L-44.8577 21.3351L-45.565 22.5766L-45.6944 25.8358L-45.0408 26.1053L-42.0763 23.9708L-41.3616 22.7116Z" fill="#ED9BE5"/>
<path d="M-52.971 4.24836L-52.805 1.3458L-53.3904 1.15467L-56.0685 3.1997L-56.7304 4.33967L-56.9196 7.24486L-56.3409 7.45093L-53.6389 5.40345L-52.971 4.24836Z" fill="#ED9BE5"/>
<path d="M-52.2367 -8.58573L-52.0794 -11.3305L-52.6504 -11.488L-55.2581 -9.45251L-55.9013 -8.35051L-56.0808 -5.60255L-55.5159 -5.43109L-52.8855 -7.47004L-52.2367 -8.58573Z" fill="#ED9BE5"/>
<path d="M-40.9162 8.33093L-40.8207 5.26365L-41.4636 5.05364L-44.3151 7.17988L-45.0013 8.37643L-45.123 11.4464L-44.4871 11.6727L-41.6087 9.54402L-40.9162 8.33093Z" fill="#ED9BE5"/>
<path d="M-27.6897 28.0962L-27.6805 24.6323L-28.4113 24.3534L-31.5555 26.5736L-32.29 27.8819L-32.3319 31.3476L-31.6088 31.6456L-28.4323 29.4239L-27.6897 28.0962Z" fill="#ED9BE5"/>
<path d="M-51.5414 -20.7296L-51.3924 -23.3288L-51.9502 -23.4556L-54.4911 -21.4318L-55.1166 -20.3654L-55.2865 -17.7618L-54.7349 -17.6222L-52.1728 -19.65L-51.5414 -20.7296Z" fill="#ED9BE5"/>
<path d="M-40.4961 -5.21765L-40.4066 -8.11062L-41.0315 -8.28313L-43.8034 -6.16649L-44.4692 -5.01204L-44.5844 -2.11554L-43.9659 -1.92764L-41.1687 -4.04753L-40.4961 -5.21765Z" fill="#ED9BE5"/>
<path d="M-27.6497 12.8241L-27.6407 9.57281L-28.3488 9.34129L-31.3962 11.5553L-32.1084 12.8137L-32.1473 16.0675L-31.447 16.3171L-28.3689 14.1007L-27.6497 12.8241Z" fill="#ED9BE5"/>
<path d="M-12.5215 34.0695L-12.6255 30.3729L-13.4374 30.0631L-16.8185 32.3774L-17.5827 33.7603L-17.5168 37.458L-16.713 37.7893L-13.2941 35.4743L-12.5215 34.0695Z" fill="#ED9BE5"/>
<path d="M-50.883 -32.2366L-50.7418 -34.7022L-51.2859 -34.8016L-53.763 -32.7904L-54.3721 -31.7576L-54.5336 -29.2876L-53.995 -29.1764L-51.4973 -31.1915L-50.883 -32.2366Z" fill="#ED9BE5"/>
<path d="M-40.0997 -18.0042L-40.0152 -20.7373L-40.6237 -20.8757L-43.32 -18.7711L-43.9672 -17.6558L-44.076 -14.9188L-43.4738 -14.7658L-40.7534 -16.8746L-40.0997 -18.0042Z" fill="#ED9BE5"/>
<path d="M-27.6118 -1.52099L-27.6037 -4.57871L-28.2904 -4.76815L-31.2466 -2.56426L-31.9371 -1.35182L-31.9743 1.70971L-31.2943 1.91595L-28.3093 -0.292188L-27.6118 -1.52099Z" fill="#ED9BE5"/>
<path d="M-12.979 17.7926L-13.0759 14.3344L-13.8603 14.0779L-17.1296 16.3869L-17.8695 17.7142L-17.8074 21.1748L-17.0309 21.4512L-13.7265 19.1402L-12.979 17.7926Z" fill="#ED9BE5"/>
<path d="M-50.2578 -43.1562L-50.1241 -45.4979L-50.6555 -45.5724L-53.0723 -43.5755L-53.6659 -42.574L-53.8191 -40.2276L-53.2926 -40.1423L-50.8562 -42.1438L-50.2578 -43.1562Z" fill="#ED9BE5"/>
<path d="M-39.7253 -30.0915L-39.6454 -32.6777L-40.2378 -32.7859L-42.8631 -30.6949L-43.4925 -29.6159L-43.5953 -27.0254L-43.008 -26.9038L-40.3608 -28.9996L-39.7253 -30.0915Z" fill="#ED9BE5"/>
<path d="M-27.576 -15.0216L-27.5685 -17.9022L-28.2354 -18.0541L-31.1058 -15.8624L-31.7764 -14.693L-31.8108 -11.808L-31.1508 -11.6405L-28.253 -13.8368L-27.576 -15.0216Z" fill="#ED9BE5"/>
<path d="M-49.664 -53.5324L-49.5365 -55.759L-50.0565 -55.8107L-52.4157 -53.8296L-52.9941 -52.8578L-53.1397 -50.6263L-52.6249 -50.5641L-50.2475 -52.5503L-49.664 -53.5324Z" fill="#ED9BE5"/>
<path d="M-13.4071 2.55405L-13.4979 -0.68807L-14.2566 -0.897292L-17.4216 1.40214L-18.1381 2.67826L-18.08 5.92334L-17.329 6.15177L-14.1311 3.84867L-13.4071 2.55405Z" fill="#ED9BE5"/>
<path d="M-39.3706 -41.5354L-39.2947 -43.986L-39.8728 -44.0666L-42.4297 -41.9906L-43.0422 -40.9466L-43.1397 -38.4907L-42.5673 -38.3976L-39.9886 -40.4784L-39.3706 -41.5354Z" fill="#ED9BE5"/>
<path d="M3.33156 23.3162L3.10402 19.6244L2.23044 19.3387L-1.29256 21.7502L-2.06233 23.1547L-1.87592 26.8485L-1.01101 27.1568L2.55316 24.7433L3.33156 23.3162Z" fill="#ED9BE5"/>
<path d="M-27.5424 -27.7497L-27.5352 -30.4685L-28.1832 -30.5864L-30.9733 -28.4091L-31.6243 -27.28L-31.6575 -24.5563L-31.0154 -24.4232L-28.2 -26.6057L-27.5424 -27.7497Z" fill="#ED9BE5"/>
<path d="M-49.0989 -63.4045L-48.9774 -65.5245L-49.4859 -65.5554L-51.7907 -63.5903L-52.3547 -62.6467L-52.4936 -60.5216L-51.9899 -60.4806L-49.6676 -62.4507L-49.0989 -63.4045Z" fill="#ED9BE5"/>
<path d="M-13.8087 -11.7423L-13.8943 -14.7878L-14.6286 -14.955L-17.6953 -12.6681L-18.39 -11.4397L-18.3359 -8.39022L-17.6085 -8.20555L-14.5106 -10.4969L-13.8087 -11.7423Z" fill="#ED9BE5"/>
<path d="M-39.0343 -52.3857L-38.9622 -54.7112L-39.526 -54.7672L-42.019 -52.7076L-42.6154 -51.6958L-42.7082 -49.3645L-42.1495 -49.2969L-39.6363 -51.3621L-39.0343 -52.3857Z" fill="#ED9BE5"/>
<path d="M-27.5107 -39.7696L-27.504 -42.3398L-28.1344 -42.4279L-30.8476 -40.2664L-31.4808 -39.1748L-31.5118 -36.5995L-30.8874 -36.4975L-28.1498 -38.6647L-27.5107 -39.7696Z" fill="#ED9BE5"/>
<path d="M2.33184 7.06936L2.11948 3.62029L1.27779 3.38832L-2.12485 5.79056L-2.86886 7.13789L-2.69517 10.5899L-1.86138 10.843L1.57906 8.43714L2.33184 7.06936Z" fill="#ED9BE5"/>
<path d="M-38.7151 -62.6876L-38.6465 -64.8971L-39.1968 -64.9304L-41.6286 -62.8887L-42.2101 -61.9072L-42.2981 -59.6913L-41.7525 -59.6473L-39.3015 -61.6946L-38.7151 -62.6876Z" fill="#ED9BE5"/>
<path d="M-14.1861 -25.1817L-14.2667 -28.0475L-14.9784 -28.1775L-17.953 -25.906L-18.6273 -24.7216L-18.5764 -21.8505L-17.871 -21.7051L-14.8673 -23.9815L-14.1861 -25.1817Z" fill="#ED9BE5"/>
<path d="M-27.4806 -51.1389L-27.4744 -53.5726L-28.0879 -53.6334L-30.7286 -51.4895L-31.345 -50.4335L-31.3744 -47.9942L-30.7666 -47.9208L-28.1027 -50.0704L-27.4806 -51.1389Z" fill="#ED9BE5"/>
<path d="M1.39706 -8.12123L1.19851 -11.3499L0.386204 -11.535L-2.9032 -9.14529L-3.62441 -7.8512L-3.46152 -4.6178L-2.65668 -4.41366L0.668619 -6.8076L1.39706 -8.12123Z" fill="#ED9BE5"/>
<path d="M-38.4114 -72.4811L-38.3464 -74.5837L-38.8837 -74.5965L-41.2569 -72.5729L-41.8243 -71.62L-41.9079 -69.5115L-41.3752 -69.4881L-38.9835 -71.5181L-38.4114 -72.4811Z" fill="#ED9BE5"/>
<path d="M-14.5419 -37.8387L-14.6177 -40.5403L-15.3079 -40.6368L-18.1957 -38.3825L-18.8511 -37.2398L-18.8027 -34.5319L-18.1187 -34.4207L-15.2034 -36.6809L-14.5419 -37.8387Z" fill="#ED9BE5"/>
<path d="M-27.4524 -61.9097L-27.4463 -64.2168L-28.0437 -64.2529L-30.616 -62.1281L-31.2161 -61.105L-31.2442 -58.7918L-30.6519 -58.7435L-28.0579 -60.8748L-27.4524 -61.9097Z" fill="#ED9BE5"/>
<path d="M0.521393 -22.3544L0.33519 -25.3835L-0.449544 -25.5267L-3.63322 -23.1529L-4.33251 -21.9078L-4.17957 -18.873L-3.40187 -18.7123L-0.184655 -21.0913L0.521393 -22.3544Z" fill="#ED9BE5"/>
<path d="M-14.8773 -49.7793L-14.949 -52.3309L-15.619 -52.3973L-18.4253 -50.1623L-19.0621 -49.0576L-19.0165 -46.4998L-18.3524 -46.4196L-15.5203 -48.6612L-14.8773 -49.7793Z" fill="#ED9BE5"/>
<path d="M-27.4253 -72.127L-27.4195 -74.3176L-28.002 -74.332L-30.5089 -72.2264L-31.094 -71.2349L-31.1204 -69.0377L-30.5431 -69.0124L-28.0152 -71.124L-27.4253 -72.127Z" fill="#ED9BE5"/>
<path d="M18.2792 -4.10038L17.9425 -7.53616L17.0389 -7.742L13.4955 -5.23957L12.7464 -3.87223L13.0417 -0.431834L13.9372 -0.204777L17.5221 -2.71181L18.2792 -4.10038Z" fill="#ED9BE5"/>
<path d="M-0.300684 -35.7182L-0.476066 -38.5662L-1.23485 -38.6719L-4.31948 -36.3166L-4.99793 -35.1169L-4.85417 -32.2629L-4.10181 -32.1407L-0.985863 -34.5023L-0.300684 -35.7182Z" fill="#ED9BE5"/>
<path d="M-15.1945 -61.0633L-15.2623 -63.4768L-15.9132 -63.5161L-18.6419 -61.3011L-19.2619 -60.2332L-19.2186 -57.8127L-18.5732 -57.7604L-15.8198 -59.982L-15.1945 -61.0633Z" fill="#ED9BE5"/>
<path d="M16.7968 -19.2254L16.4819 -22.4378L15.6118 -22.5968L12.1905 -20.1111L11.4653 -18.7982L11.7413 -15.5804L12.6039 -15.4017L16.0637 -17.8932L16.7968 -19.2254Z" fill="#ED9BE5"/>
<path d="M-1.07416 -48.2901L-1.23934 -50.9724L-1.97402 -51.0449L-4.96546 -48.7099L-5.62457 -47.5529L-5.48906 -44.864L-4.76036 -44.7758L-1.73951 -47.1177L-1.07416 -48.2901Z" fill="#ED9BE5"/>
<path d="M-15.4945 -71.7428L-15.5588 -74.0294L-16.1918 -74.0445L-18.8474 -71.8509L-19.451 -70.8166L-19.4099 -68.5231L-18.782 -68.4953L-16.1032 -70.6963L-15.4945 -71.7428Z" fill="#ED9BE5"/>
<path d="M-15.779 -81.8656L-15.8398 -84.0345L-16.4561 -84.0283L-19.0421 -81.8564L-19.6302 -80.854L-19.5914 -78.6777L-18.9801 -78.6725L-16.372 -80.8517L-15.779 -81.8656Z" fill="#ED9BE5"/>
<path d="M-1.80317 -60.1383L-1.95901 -62.669L-2.67115 -62.7122L-5.57493 -60.3991L-6.21542 -59.2812L-6.08766 -56.7438L-5.38127 -56.6862L-2.44966 -59.0065L-1.80317 -60.1383Z" fill="#ED9BE5"/>
<path d="M15.4095 -33.3792L15.1144 -36.3893L14.2758 -36.5063L10.9685 -34.0404L10.2652 -32.7784L10.5242 -29.7614L11.3558 -29.6262L14.6991 -32.099L15.4095 -33.3792Z" fill="#ED9BE5"/>
<path d="M-2.49137 -71.3238L-2.63852 -73.715L-3.32939 -73.7318L-6.15051 -71.4418L-6.77362 -70.3611L-6.65278 -67.9623L-5.96753 -67.9324L-3.12018 -70.23L-2.49137 -71.3238Z" fill="#ED9BE5"/>
<path d="M14.1086 -46.6521L13.8313 -49.4787L13.0218 -49.5589L9.82117 -47.1149L9.13888 -45.8996L9.38225 -43.0656L10.1851 -42.9686L13.4196 -45.4199L14.1086 -46.6521Z" fill="#ED9BE5"/>
<path d="M-3.14198 -81.9001L-3.28133 -84.1635L-3.9522 -84.1567L-6.69514 -81.8907L-7.30183 -80.8448L-7.18731 -78.5735L-6.52177 -78.568L-3.75402 -80.8419L-3.14198 -81.9001Z" fill="#ED9BE5"/>
<path d="M12.8861 -59.124L12.6256 -61.7828L11.8431 -61.8304L8.74245 -59.4103L8.07989 -58.2384L8.30871 -55.5718L9.08477 -55.5088L12.2172 -57.9367L12.8861 -59.124Z" fill="#ED9BE5"/>
<path d="M32.8285 -30.7855L32.3878 -33.9776L31.4563 -34.1077L27.8948 -31.5205L27.1654 -30.1887L27.5641 -26.9898L28.4881 -26.8394L32.0914 -29.4339L32.8285 -30.7855Z" fill="#ED9BE5"/>
<path d="M11.7353 -70.8652L11.4895 -73.3714L10.7326 -73.3897L7.72594 -70.9947L7.08189 -69.8638L7.29769 -67.3496L8.04888 -67.3163L11.0853 -69.7197L11.7353 -70.8652Z" fill="#ED9BE5"/>
<path d="M30.8886 -44.8416L30.4762 -47.8288L29.5802 -47.9175L26.1419 -45.3537L25.4348 -44.0743L25.8079 -41.0796L26.6971 -40.9721L30.1743 -43.5438L30.8886 -44.8416Z" fill="#ED9BE5"/>
<path d="M10.6498 -81.9385L10.418 -84.3042L9.68496 -84.2966L6.76684 -81.9276L6.14035 -80.8346L6.34417 -78.4602L7.07162 -78.4542L10.0178 -80.8318L10.6498 -81.9385Z" fill="#ED9BE5"/>
<path d="M29.0717 -58.0064L28.685 -60.8077L27.8217 -60.86L24.4984 -58.322L23.8123 -57.091L24.1624 -54.2814L25.0194 -54.2113L28.3789 -56.7581L29.0717 -58.0064Z" fill="#ED9BE5"/>
<path d="M27.3666 -70.3615L27.0031 -72.994L26.1704 -73.0141L22.9545 -70.5039L22.2882 -69.3177L22.6174 -66.6764L23.4442 -66.6399L26.6941 -69.1593L27.3666 -70.3615Z" fill="#ED9BE5"/>
<path d="M49.5319 -42.8304L48.9553 -45.9974L47.958 -46.096L44.2476 -43.4006L43.5144 -42.0495L44.0455 -38.8742L45.0356 -38.7544L48.7912 -41.4585L49.5319 -42.8304Z" fill="#ED9BE5"/>
<path d="M25.7632 -81.9799L25.4212 -84.4578L24.6167 -84.4497L21.5017 -81.9682L20.8542 -80.8236L21.1644 -78.336L21.9627 -78.3295L25.1099 -80.8203L25.7632 -81.9799Z" fill="#ED9BE5"/>
<path d="M46.9945 -56.7689L46.4558 -59.7283L45.4983 -59.7862L41.9209 -57.1191L41.2103 -55.8217L41.7068 -52.8531L42.6575 -52.7758L46.277 -55.4522L46.9945 -56.7689Z" fill="#ED9BE5"/>
<path d="M24.2523 -92.9258L23.93 -95.2625L23.1523 -95.2289L20.1318 -92.7771L19.502 -91.6717L19.7947 -89.3248L20.5667 -89.3447L23.6171 -91.8063L24.2523 -92.9258Z" fill="#ED9BE5"/>
<path d="M44.6213 -69.8059L44.1169 -72.5773L43.1959 -72.6L39.7425 -69.9629L39.0531 -68.7154L39.5185 -65.9336L40.4327 -65.8934L43.9253 -68.5405L44.6213 -69.8059Z" fill="#ED9BE5"/>
<path d="M42.3968 -82.026L41.9233 -84.6273L41.0367 -84.6183L37.699 -82.0128L37.0293 -80.8118L37.4663 -78.1998L38.3468 -78.1924L41.7212 -80.8081L42.3968 -82.026Z" fill="#ED9BE5"/>
<path d="M40.3075 -93.5038L39.8621 -95.9503L39.0073 -95.9134L35.7776 -93.3409L35.127 -92.1824L35.5381 -89.7253L36.3872 -89.7467L39.651 -92.3302L40.3075 -93.5038Z" fill="#ED9BE5"/>
<path d="M63.7667 -69.1886L63.0913 -72.1157L62.0677 -72.1407L58.3429 -69.3633L57.6288 -68.0481L58.2589 -65.1098L59.2754 -65.0653L63.0457 -67.8535L63.7667 -69.1886Z" fill="#ED9BE5"/>
<path d="M60.7927 -82.0769L60.1611 -84.8145L59.1787 -84.8047L55.5878 -82.0621L54.8951 -80.7981L55.4845 -78.0487L56.4602 -78.0406L60.0936 -80.7944L60.7927 -82.0769Z" fill="#ED9BE5"/>
<path d="M58.0088 -94.1419L57.4168 -96.7081L56.4726 -96.6676L53.0061 -93.9614L52.3336 -92.7447L52.8865 -90.1663L53.8243 -90.1901L57.3301 -92.9082L58.0088 -94.1419Z" fill="#ED9BE5"/>
<path d="M55.3973 -105.46L54.8413 -107.871L53.9325 -107.803L50.5821 -105.134L49.9286 -103.962L50.448 -101.539L51.3509 -101.591L54.7379 -104.272L55.3973 -105.46Z" fill="#ED9BE5"/>
<path d="M81.2467 -82.1333L80.4237 -85.0227L79.3294 -85.0114L75.4475 -82.1172L74.7304 -80.7833L75.5044 -77.881L76.5918 -77.8718L80.5227 -80.7789L81.2467 -82.1333Z" fill="#ED9BE5"/>
<path d="M77.6239 -94.8485L76.855 -97.5474L75.807 -97.5019L72.07 -94.6481L71.3741 -93.367L72.0977 -90.655L73.1392 -90.6814L76.9219 -93.5486L77.6239 -94.8485Z" fill="#ED9BE5"/>
<path d="M74.2372 -106.736L73.5175 -109.262L72.512 -109.188L68.9088 -106.375L68.2335 -105.142L68.9112 -102.602L69.9102 -102.66L73.5557 -105.486L74.2372 -106.736Z" fill="#ED9BE5"/>
<path d="M95.1559 -108.152L94.2392 -110.806L93.121 -110.723L89.2283 -107.751L88.5304 -106.452L89.398 -103.783L90.51 -103.847L94.4519 -106.834L95.1559 -108.152Z" fill="#ED9BE5"/>
<path d="M91.1188 -119.836L90.2617 -122.318L89.1908 -122.207L85.4431 -119.281L84.7654 -118.033L85.5766 -115.536L86.6418 -115.63L90.4349 -118.571L91.1188 -119.836Z" fill="#ED9BE5"/>
<path d="M113.434 -122.021L112.357 -124.625L111.163 -124.5L107.105 -121.402L106.405 -120.085L107.429 -117.465L108.617 -117.57L112.727 -120.686L113.434 -122.021Z" fill="#ED9BE5"/>
<path fill-rule="evenodd" clip-rule="evenodd" d="M28.8356 -21.9872L30.765 -20.2542L30.7705 -19.5459L28.8826 -18.2174L28.0003 -18.3063L26.0652 -20.0237L26.0515 -20.7348L27.9451 -22.0788L28.8356 -21.9872ZM37.4134 -14.2825L39.2634 -12.6208L39.2549 -11.9396L37.3843 -10.6579L36.5241 -10.7415L34.6682 -12.3886L34.6691 -13.0723L36.5455 -14.3686L37.4134 -14.2825ZM45.6413 -6.89214L47.4169 -5.29725L47.3953 -4.64176L45.5421 -3.40444L44.703 -3.48292L42.9217 -5.06379L42.9361 -5.72158L44.795 -6.97294L45.6413 -6.89214ZM53.5404 0.202899L55.2459 1.73481L55.2123 2.3661L53.3767 3.56179L52.5577 3.48794L50.8465 1.96928L50.8732 1.33585L52.7146 0.126923L53.5404 0.202899ZM37.5247 -28.1461L39.436 -26.3631L39.4268 -25.6359L37.4936 -24.2756L36.6048 -24.3686L34.6876 -26.1349L34.6885 -26.8652L36.628 -28.2415L37.5247 -28.1461ZM61.1299 7.01991L62.7694 8.49251L62.7248 9.101L60.9067 10.2573L60.1071 10.1878L58.4619 8.72775L58.5 8.11725L60.3237 6.94846L61.1299 7.01991ZM46.0203 -20.2212L47.8522 -18.5123L47.8291 -17.8134L45.9146 -16.5017L45.0484 -16.5889L43.2104 -18.2825L43.2258 -18.9838L45.1465 -20.3108L46.0203 -20.2212ZM68.4278 13.5749L70.005 14.9916L69.9502 15.5785L68.1497 16.6975L67.3685 16.6322L65.7856 15.2273L65.8341 14.6385L67.6403 13.5077L68.4278 13.5749ZM54.1656 -12.623L55.9228 -10.9838L55.887 -10.3115L53.9912 -9.04568L53.1465 -9.12768L51.3831 -10.7524L51.4116 -11.4271L53.3135 -12.7074L54.1656 -12.623ZM61.9815 -5.33211L63.6686 -3.7583L63.6211 -3.11109L61.7441 -1.88849L60.9199 -1.9656L59.2266 -3.52569L59.2672 -4.17508L61.1503 -5.41146L61.9815 -5.33211ZM46.4251 -34.4548L48.3169 -32.62L48.2923 -31.873L46.3122 -30.4797L45.4171 -30.5766L43.5188 -32.3944L43.535 -33.1445L45.5219 -34.5545L46.4251 -34.4548ZM69.4879 1.67L71.1089 3.18216L71.0507 3.80572L69.1924 4.98751L68.3877 4.91498L66.7605 3.41574L66.8122 2.79013L68.6765 1.59537L69.4879 1.67ZM54.8322 -26.3011L56.6444 -24.5435L56.6064 -23.8257L54.6463 -22.4829L53.7739 -22.5744L51.9551 -24.316L51.9857 -25.0359L53.9523 -26.3947L54.8322 -26.3011ZM76.7025 8.40003L78.2614 9.85419L78.1932 10.4554L76.3538 11.5986L75.5677 11.5303L74.0028 10.0885L74.0646 9.4853L75.9101 8.3298L76.7025 8.40003ZM62.8885 -18.4875L64.6261 -16.8023L64.5755 -16.1125L62.6355 -14.8173L61.7851 -14.903L60.041 -16.5731L60.0842 -17.2653L62.0307 -18.5756L62.8885 -18.4875ZM70.6154 -10.9934L72.2828 -9.37628L72.2208 -8.71261L70.301 -7.46214L69.4713 -7.54268L67.7974 -9.14561L67.8524 -9.81164L69.7787 -11.0763L70.6154 -10.9934ZM55.5449 -40.9185L57.4155 -39.0301L57.3747 -38.2628L55.3457 -36.8354L54.4442 -36.9367L52.5665 -38.8076L52.5989 -39.578L54.635 -41.0229L55.5449 -40.9185ZM78.0328 -3.79959L79.6342 -2.24645L79.5617 -1.60735L77.662 -0.399125L76.8521 -0.474927L75.2442 -2.01461L75.31 -2.65595L77.2162 -3.8776L78.0328 -3.79959ZM85.1588 3.11168L86.6981 4.60451L86.616 5.22049L84.7363 6.3887L83.9453 6.31739L82.3996 4.83721L82.4753 4.21925L84.3614 3.0383L85.1588 3.11168ZM63.8566 -32.5272L65.6476 -30.7189L65.5935 -29.9825L63.5863 -28.6073L62.708 -28.7024L60.9098 -30.4943L60.956 -31.2336L62.9703 -32.6252L63.8566 -32.5272ZM71.8172 -24.4902L73.5337 -22.7573L73.4675 -22.0495L71.4818 -20.7238L70.6257 -20.8132L68.9022 -22.5305L68.9609 -23.2409L70.9535 -24.5823L71.8172 -24.4902ZM79.4487 -16.7855L81.0951 -15.1234L81.0179 -14.4427L79.0538 -13.1634L78.2187 -13.2475L76.5654 -14.8949L76.6354 -15.578L78.6065 -16.8721L79.4487 -16.7855ZM56.3079 -56.5767L58.2413 -54.5421L58.1974 -53.7198L56.0948 -52.1987L55.1617 -52.3115L53.221 -54.3263L53.256 -55.152L55.3662 -56.6925L56.3079 -56.5767ZM86.7711 -9.39296L88.3515 -7.79737L88.2642 -7.14216L86.3215 -5.90664L85.5066 -5.98578L83.9192 -7.56748L83.9997 -8.22498L85.9492 -9.47437L86.7711 -9.39296ZM64.8918 -47.5439L66.7399 -45.599L66.6819 -44.8108L64.6025 -43.3478L63.6946 -43.4534L61.8389 -45.3799L61.8882 -46.1716L63.9752 -47.653L64.8918 -47.5439ZM73.1009 -38.9053L74.8691 -37.0447L74.7983 -36.2882L72.7424 -34.8795L71.8578 -34.979L70.082 -36.8225L70.1446 -37.5821L72.2084 -39.0077L73.1009 -38.9053ZM80.959 -30.6362L82.6528 -28.8538L82.5704 -28.1273L80.5374 -26.77L79.6755 -26.8634L77.9742 -28.6295L78.049 -29.3588L80.0894 -30.7324L80.959 -30.6362ZM88.4884 -22.7129L90.1122 -21.0042L90.0191 -20.3058L88.0093 -18.9966L87.1687 -19.0845L85.5374 -20.778L85.6233 -21.4789L87.6406 -22.8033L88.4884 -22.7129ZM66.0018 -63.6425L67.9104 -61.5463L67.8483 -60.7002L65.6914 -59.1401L64.7514 -59.258L62.8346 -61.334L62.8877 -62.1833L65.0528 -63.7638L66.0018 -63.6425ZM95.7094 -15.1144L97.2674 -13.4748L97.1646 -12.8028L95.1776 -11.5391L94.3574 -11.6217L92.7919 -13.2469L92.8879 -13.9212L94.8823 -15.1994L95.7094 -15.1144ZM74.4748 -54.3359L76.2985 -52.3334L76.2228 -51.5229L74.0908 -50.023L73.176 -50.1338L71.3446 -52.1173L71.4116 -52.9312L73.5517 -54.4499L74.4748 -54.3359ZM82.5731 -45.4412L84.3176 -43.5255L84.2292 -42.7485L82.1226 -41.3051L81.2317 -41.409L79.4797 -43.3065L79.5598 -44.0866L81.6744 -45.5481L82.5731 -45.4412ZM90.3218 -36.9308L91.9912 -35.097L91.8917 -34.3509L89.8097 -32.9609L88.942 -33.0585L87.2642 -34.8752L87.356 -35.6241L89.4463 -37.0312L90.3218 -36.9308ZM97.7418 -28.7805L99.3416 -27.0233L99.2319 -26.3066L97.1748 -24.9667L96.3287 -25.0584L94.721 -26.7997L94.8231 -27.5189L96.8885 -28.875L97.7418 -28.7805ZM75.9491 -70.8938L77.8314 -68.7327L77.75 -67.8623L75.5369 -66.2614L74.5897 -66.3848L72.6987 -68.5242L72.7708 -69.3983L74.9929 -71.0206L75.9491 -70.8938ZM84.3029 -61.3023L86.1001 -59.2387L86.0052 -58.4056L83.8193 -56.8673L82.8978 -56.9828L81.092 -59.0264L81.1779 -59.8633L83.3727 -61.4213L84.3029 -61.3023ZM92.2825 -52.14L94.0006 -50.1677L93.8941 -49.3692L91.7347 -47.8899L90.8378 -47.9984L89.1114 -49.952L89.2093 -50.754L91.3776 -52.2519L92.2825 -52.14ZM99.9129 -43.3789L101.557 -41.4918L101.439 -40.7256L99.3065 -39.3017L98.4329 -39.4035L96.781 -41.2733L96.8901 -42.0423L99.0318 -43.4839L99.9129 -43.3789ZM86.1602 -78.3369L88.0138 -76.1084L87.912 -75.2129L85.6401 -73.5696L84.6864 -73.6985L82.8233 -75.9047L82.9156 -76.8043L85.1968 -78.4691L86.1602 -78.3369ZM94.3852 -68.4486L96.1541 -66.3222L96.0398 -65.4653L93.7972 -63.8876L92.8695 -64.008L91.091 -66.1138L91.1967 -66.9743L93.4485 -68.5729L94.3852 -68.4486ZM102.238 -59.0086L103.927 -56.9773L103.802 -56.1562L101.588 -54.6398L100.685 -54.7528L98.9857 -56.7649L99.103 -57.5891L101.326 -59.1252L102.238 -59.0086ZM109.742 -49.9869L111.358 -48.0443L111.222 -47.2572L109.037 -45.7981L108.157 -45.9044L106.532 -47.8287L106.66 -48.6189L108.855 -50.0965L109.742 -49.9869ZM96.6454 -85.9801L98.4683 -83.6813L98.3453 -82.7593L96.013 -81.0721L95.0517 -81.2062L93.2188 -83.4819L93.3322 -84.408L95.675 -86.1185L96.6454 -85.9801ZM104.732 -75.7827L106.471 -73.5901L106.336 -72.7085L104.034 -71.0896L103.1 -71.2154L101.351 -73.3863L101.477 -74.2718L103.789 -75.9124L104.732 -75.7827ZM112.448 -66.0534L114.107 -63.9603L113.962 -63.116L111.691 -61.5608L110.782 -61.6788L109.112 -63.752L109.249 -64.5993L111.53 -66.1749L112.448 -66.0534ZM107.417 -93.8313L109.206 -91.4598L109.061 -90.5098L106.665 -88.7767L105.697 -88.917L103.896 -91.2649L104.032 -92.219L106.439 -93.9763L107.417 -93.8313ZM115.355 -83.3114L117.06 -81.051L116.903 -80.1434L114.541 -78.4813L113.6 -78.6129L111.883 -80.8513L112.031 -81.7625L114.404 -83.4472L115.355 -83.3114ZM122.923 -73.2808L124.551 -71.1238L124.384 -70.2555L122.054 -68.6601L121.138 -68.7835L119.501 -70.9194L119.659 -71.7909L121.999 -73.408L122.923 -73.2808ZM118.485 -101.9L120.239 -99.4513L120.07 -98.4728L117.608 -96.6918L116.633 -96.8389L114.867 -99.2623L115.026 -100.245L117.5 -102.051L118.485 -101.9ZM126.263 -91.0435L127.934 -88.7115L127.754 -87.7774L125.328 -86.0705L124.38 -86.2078L122.697 -88.5163L122.868 -89.4547L125.306 -91.1851L126.263 -91.0435ZM137.469 -98.9865L139.102 -96.5801L138.899 -95.6177L136.406 -93.8645L135.451 -94.008L133.806 -96.39L134.001 -97.3567L136.505 -99.1343L137.469 -98.9865Z" fill="#ED9BE5"/>
<path fill-rule="evenodd" clip-rule="evenodd" d="M84.3578 63.3101L83.706 60.7999L83.0795 60.4693L81.0318 61.535L80.705 62.3594L81.3404 64.8674L81.9655 65.2065L84.0297 64.1429L84.3578 63.3101ZM81.4598 52.1501L80.8349 49.7433L80.226 49.4376L78.2278 50.5094L77.9065 51.3118L78.5158 53.7172L79.1234 54.0307L81.1373 52.9604L81.4598 52.1501ZM78.6801 41.4455L78.0803 39.1354L77.4882 38.8532L75.5373 39.93L75.2213 40.7112L75.8061 43.0199L76.3968 43.3096L78.3628 42.2342L78.6801 41.4455ZM76.0115 31.1687L75.4353 28.9498L74.8592 28.6893L72.9534 29.7697L72.6425 30.5308L73.2043 32.7487L73.7791 33.0162L75.6993 31.9369L76.0115 31.1687ZM93.8222 58.4257L93.1178 55.9086L92.4678 55.5824L90.3708 56.6736L90.0448 57.5058L90.7318 60.0203L91.3807 60.3554L93.4947 59.2659L93.8222 58.4257ZM73.4474 21.2945L72.8935 19.1615L72.3327 18.9214L70.4699 20.0042L70.1639 20.7463L70.7041 22.8786L71.2637 23.1255L73.1402 22.0433L73.4474 21.2945ZM90.691 47.2376L90.0157 44.8251L89.3845 44.5242L87.3393 45.6213L87.0185 46.4305L87.6773 48.8414L88.3073 49.1502L90.3688 48.0547L90.691 47.2376ZM87.6887 36.5108L87.041 34.1966L86.4275 33.9192L84.4318 35.0207L84.1162 35.8086L84.7482 38.1215L85.3604 38.4065L87.3719 37.3062L87.6887 36.5108ZM84.8079 26.2176L84.186 23.9958L83.5894 23.7404L81.6407 24.8451L81.3302 25.6126L81.9371 27.8335L82.5324 28.0961L84.4962 26.9923L84.8079 26.2176ZM103.517 53.4226L102.757 50.8989L102.083 50.5773L99.9349 51.6951L99.6095 52.5346L100.351 55.0561L101.024 55.3866L103.19 54.2705L103.517 53.4226ZM82.0412 16.3323L81.4437 14.1975L80.8632 13.9625L78.9593 15.0693L78.6537 15.8173L79.2369 17.9516L79.8162 18.1933L81.7344 17.0872L82.0412 16.3323ZM100.142 42.2078L99.4141 39.7904L98.7593 39.4941L96.6656 40.6173L96.3457 41.4342L97.0561 43.8501L97.7094 44.1539L99.8203 43.0322L100.142 42.2078ZM96.9073 31.4609L96.2097 29.1431L95.5739 28.8709L93.5317 29.9981L93.2167 30.7927L93.8979 33.1094L94.5325 33.3893L96.5911 32.2633L96.9073 31.4609ZM93.8051 21.1536L93.1357 18.9293L92.5178 18.6792L90.5246 19.8091L90.2147 20.5829L90.8685 22.8064L91.4852 23.0638L93.494 21.9347L93.8051 21.1536ZM113.45 48.2959L112.633 45.7665L111.933 45.45L109.733 46.5954L109.408 47.4426L110.206 49.9702L110.905 50.2957L113.124 49.152L113.45 48.2959ZM90.8272 11.2591L90.1843 9.12286L89.5835 8.89336L87.637 10.0248L87.332 10.7789L87.9599 12.9147L88.5597 13.1512L90.521 12.0201L90.8272 11.2591ZM109.82 37.0567L109.038 34.6347L108.359 34.3442L106.215 35.4943L105.895 36.318L106.66 38.7388L107.338 39.0377L109.5 37.8888L109.82 37.0567ZM106.343 26.292L105.594 23.9711L104.935 23.7044L102.844 24.8581L102.53 25.6595L103.263 27.9796L103.92 28.2541L106.028 27.1014L106.343 26.292ZM103.01 15.9725L102.291 13.7463L101.651 13.5019L99.6119 14.6578L99.3027 15.4381L100.005 17.6637L100.644 17.9156L102.7 16.7602L103.01 15.9725ZM127.706 54.8178L126.788 52.1655L126.038 51.8264L123.72 52.9942L123.391 53.8746L124.288 56.5244L125.037 56.873L127.376 55.7074L127.706 54.8178ZM99.8121 6.07104L99.1218 3.93392L98.4998 3.71022L96.5094 4.86724L96.205 5.62734L96.8797 7.76426L97.5006 7.99507L99.5065 6.83829L99.8121 6.07104ZM123.631 43.0419L122.754 40.5065L122.027 40.1957L119.772 41.3695L119.448 42.2243L120.306 44.758L121.032 45.0782L123.307 43.9061L123.631 43.0419ZM119.734 31.7801L118.895 29.3543L118.191 29.0694L115.995 30.2474L115.676 31.0787L116.497 33.5032L117.2 33.7969L119.415 32.6197L119.734 31.7801ZM116.004 20.9998L115.2 18.6761L114.517 18.4153L112.377 19.5965L112.064 20.4049L112.85 22.7277L113.532 22.9966L115.69 21.8162L116.004 20.9998ZM112.43 10.6704L111.659 8.44273L110.996 8.2043L108.91 9.38716L108.601 10.174L109.355 12.4013L110.017 12.6473L112.121 11.4648L112.43 10.6704ZM138.438 49.4583L137.454 46.7995L136.674 46.4656L134.297 47.6637L133.969 48.5527L134.931 51.2093L135.71 51.5527L138.109 50.3567L138.438 49.4583ZM109.003 0.764256L108.263 -1.37325L107.619 -1.59087L105.583 -0.407396L105.279 0.358941L106.003 2.49641L106.646 2.72121L108.698 1.53781L109.003 0.764256ZM134.069 37.6549L133.129 35.1147L132.375 34.8093L130.062 36.0129L129.74 36.8761L130.659 39.4145L131.413 39.7293L133.746 38.527L134.069 37.6549ZM129.894 26.3737L128.995 23.9437L128.264 23.6649L126.014 24.872L125.696 25.7109L126.576 28.1391L127.305 28.4267L129.575 27.2208L129.894 26.3737ZM125.899 15.5796L125.038 13.2539L124.33 12.9992L122.138 14.209L121.826 15.0244L122.668 17.3497L123.375 17.6125L125.586 16.4032L125.899 15.5796ZM122.073 5.243L121.248 3.01439L120.561 2.7823L118.426 3.99295L118.118 4.78648L118.925 7.01479L119.611 7.25479L121.765 6.04416L122.073 5.243ZM149.451 43.9588L148.397 41.2937L147.587 40.9658L145.147 42.195L144.821 43.0928L145.852 45.7557L146.661 46.0936L149.124 44.8663L149.451 43.9588ZM144.774 32.1304L143.768 29.5856L142.984 29.2868L140.613 30.5207L140.292 31.392L141.277 33.9353L142.059 34.2438L144.452 33.0111L144.774 32.1304ZM140.307 20.8315L139.345 18.3989L138.587 18.1264L136.281 19.3638L135.965 20.2101L136.906 22.6415L137.663 22.9233L139.99 21.6865L140.307 20.8315ZM136.035 10.0272L135.115 7.69988L134.381 7.45184L132.135 8.69102L131.824 9.51367L132.725 11.8403L133.458 12.097L135.723 10.858L136.035 10.0272ZM160.755 38.3134L159.629 35.6427L158.786 35.3214L156.283 36.5833L155.959 37.4894L157.061 40.1584L157.902 40.49L160.43 39.2297L160.755 38.3134ZM155.756 26.4629L154.681 23.9143L153.867 23.6218L151.435 24.8878L151.116 25.7671L152.168 28.3146L152.981 28.6164L155.436 27.3518L155.756 26.4629ZM150.983 15.1493L149.957 12.7147L149.17 12.4488L146.805 13.7177L146.49 14.5716L147.496 17.0053L148.282 17.2802L150.668 16.0124L150.983 15.1493ZM146.422 4.3372L145.44 2.00894L144.679 1.76777L142.378 3.03751L142.068 3.8675L143.03 6.19559L143.79 6.44522L146.112 5.17544L146.422 4.3372ZM172.364 32.5165L171.16 29.8408L170.285 29.5261L167.714 30.8215L167.392 31.7368L168.57 34.4108L169.444 34.7359L172.04 33.4419L172.364 32.5165ZM167.026 20.6467L165.879 18.0947L165.034 17.8092L162.538 19.1085L162.22 19.996L163.344 22.5473L164.188 22.8425L166.708 21.5439L167.026 20.6467ZM161.934 9.32131L160.838 6.88533L160.022 6.6265L157.597 7.92776L157.283 8.78945L158.357 11.2254L159.172 11.4932L161.62 10.1923L161.934 9.32131ZM184.288 26.5614L183.005 23.8815L182.095 23.5739L179.454 24.9048L179.133 25.8292L180.39 28.5078L181.3 28.8258L183.967 27.4963L184.288 26.5614ZM178.596 14.6753L177.373 12.1213L176.495 11.8434L173.933 13.177L173.617 14.0732L174.815 16.6267L175.692 16.9146L178.28 15.5816L178.596 14.6753ZM173.169 3.34192L172.002 0.904889L171.154 0.654129L168.666 1.98921L168.354 2.85916L169.498 5.2956L170.345 5.55593L172.857 4.22159L173.169 3.34192ZM196.542 20.442L195.175 17.7589L194.228 17.4589L191.514 18.8265L191.197 19.7601L192.537 22.4426L193.482 22.753L196.224 21.3866L196.542 20.442ZM190.478 8.5436L189.175 5.9876L188.263 5.71776L185.632 7.08743L185.318 7.99229L186.594 10.5477L187.506 10.8277L190.164 9.4586L190.478 8.5436ZM202.684 2.24435L201.298 -0.312541L200.35 -0.574124L197.647 0.833024L197.335 1.74696L198.694 4.30337L199.642 4.57508L202.372 3.16842L202.684 2.24435Z" fill="#ED9BE5"/>
<path d="M217.021 16.5794L218.407 19.1363L218.095 20.0604L215.365 21.467L214.417 21.1953L213.058 18.6389L213.37 17.725L216.073 16.3178L217.021 16.5794Z" fill="#ED9BE5"/>
<path d="M148.19 -85.6236L149.576 -83.0667L149.264 -82.1426L146.534 -80.736L145.586 -81.0077L144.227 -83.5641L144.539 -84.478L147.241 -85.8851L148.19 -85.6236Z" fill="#ED9BE5"/>
<path d="M131.739 -121.623L133.125 -119.066L132.812 -118.142L130.082 -116.735L129.135 -117.007L127.776 -119.564L128.087 -120.477L130.79 -121.885L131.739 -121.623Z" fill="#ED9BE5"/>
<path d="M84.9915 -136.771L86.3774 -134.214L86.0653 -133.29L83.3353 -131.884L82.3874 -132.155L81.0286 -134.712L81.3403 -135.626L84.0431 -137.033L84.9915 -136.771Z" fill="#ED9BE5"/>
<path d="M231.804 40.881L233.19 43.4379L232.878 44.362L230.148 45.7686L229.2 45.4969L227.842 42.9405L228.153 42.0266L230.856 40.6194L231.804 40.881Z" fill="#ED9BE5"/>
<path d="M113.516 -142.622L114.902 -140.065L114.59 -139.141L111.86 -137.734L110.912 -138.006L109.553 -140.562L109.865 -141.476L112.568 -142.883L113.516 -142.622Z" fill="#ED9BE5"/>
<path d="M222.157 58.8567L223.543 61.4136L223.231 62.3377L220.501 63.7443L219.553 63.4726L218.195 60.9162L218.506 60.0022L221.209 58.5951L222.157 58.8567Z" fill="#ED9BE5"/>
<path d="M195.341 68.5109L196.727 71.0677L196.415 71.9918L193.685 73.3985L192.737 73.1268L191.378 70.5704L191.69 69.6564L194.393 68.2493L195.341 68.5109Z" fill="#ED9BE5"/>
<path d="M125.376 -175.867L126.762 -173.31L126.45 -172.386L123.72 -170.979L122.772 -171.251L121.414 -173.807L121.725 -174.721L124.428 -176.129L125.376 -175.867Z" fill="#ED9BE5"/>
<path d="M267.745 29.3086L269.131 31.8655L268.819 32.7896L266.089 34.1962L265.141 33.9245L263.782 31.3681L264.094 30.4542L266.797 29.047L267.745 29.3086Z" fill="#ED9BE5"/>
<path d="M126.945 -151.396L128.331 -148.839L128.019 -147.915L125.289 -146.508L124.341 -146.78L122.982 -149.337L123.294 -150.251L125.996 -151.658L126.945 -151.396Z" fill="#ED9BE5"/>
<path d="M97.9818 -159.202L99.3678 -156.645L99.0557 -155.721L96.3257 -154.315L95.3778 -154.586L94.019 -157.143L94.3307 -158.057L97.0335 -159.464L97.9818 -159.202Z" fill="#ED9BE5"/>
<path d="M59.3313 -141.138L60.7173 -138.581L60.4052 -137.657L57.6752 -136.251L56.7273 -136.522L55.3685 -139.079L55.6802 -139.993L58.383 -141.4L59.3313 -141.138Z" fill="#ED9BE5"/>
<path d="M149.685 -145.858L151.071 -143.301L150.759 -142.377L148.029 -140.971L147.081 -141.242L145.722 -143.799L146.034 -144.713L148.737 -146.12L149.685 -145.858Z" fill="#ED9BE5"/>
<path d="M164.317 -131.756L165.703 -129.199L165.391 -128.275L162.661 -126.868L161.713 -127.14L160.355 -129.696L160.666 -130.61L163.369 -132.017L164.317 -131.756Z" fill="#ED9BE5"/>
<path d="M148.404 -166.872L149.79 -164.315L149.478 -163.391L146.748 -161.984L145.8 -162.256L144.441 -164.812L144.753 -165.726L147.455 -167.133L148.404 -166.872Z" fill="#ED9BE5"/>
<path d="M237.096 6.789L238.482 9.34588L238.17 10.2699L235.44 11.6766L234.492 11.4049L233.133 8.84848L233.445 7.93456L236.147 6.52742L237.096 6.789Z" fill="#ED9BE5"/>
<path d="M236.267 16.3734L237.653 18.9303L237.341 19.8543L234.611 21.261L233.663 20.9893L232.304 18.4329L232.616 17.519L235.319 16.1118L236.267 16.3734Z" fill="#ED9BE5"/>
<path d="M262.881 46.1908L264.267 48.7476L263.955 49.6717L261.225 51.0784L260.277 50.8067L258.918 48.2503L259.23 47.3363L261.932 45.9292L262.881 46.1908Z" fill="#ED9BE5"/>
<path d="M117.438 -154.088L118.824 -151.531L118.512 -150.607L115.782 -149.2L114.834 -149.472L113.475 -152.028L113.787 -152.942L116.489 -154.349L117.438 -154.088Z" fill="#ED9BE5"/>
<path d="M267.694 6.33635L269.079 8.89323L268.767 9.81729L266.037 11.2239L265.089 10.9522L263.731 8.39583L264.042 7.4819L266.745 6.07476L267.694 6.33635Z" fill="#ED9BE5"/>
<path d="M252.413 45.8998L253.799 48.4567L253.487 49.3808L250.757 50.7874L249.809 50.5157L248.45 47.9593L248.762 47.0454L251.464 45.6382L252.413 45.8998Z" fill="#ED9BE5"/>
<path d="M221.392 -23.0062L222.778 -20.4494L222.466 -19.5253L219.736 -18.1186L218.788 -18.3903L217.429 -20.9467L217.741 -21.8607L220.444 -23.2678L221.392 -23.0062Z" fill="#ED9BE5"/>
<path d="M248.337 -11.5512L249.723 -8.99428L249.411 -8.07022L246.681 -6.66356L245.733 -6.93526L244.374 -9.49169L244.686 -10.4056L247.389 -11.8127L248.337 -11.5512Z" fill="#ED9BE5"/>
<path d="M170.603 -148.292L171.989 -145.735L171.677 -144.811L168.947 -143.404L167.999 -143.676L166.64 -146.232L166.952 -147.146L169.654 -148.553L170.603 -148.292Z" fill="#ED9BE5"/>
</g>
<g opacity="0.8">
<path fill-rule="evenodd" clip-rule="evenodd" d="M303 31.8879L295.112 24L262.888 24L255 31.8878L255 64.1165L262.884 72L295.116 72L303 64.1163L303 31.8879Z" fill="#BEC1BF"/>
</g>
<path d="M277.08 54.4123L281.4 54.4123L283.56 52.4274L283.56 36.5475L281.4 34.5625L277.08 34.5625L274.92 36.5475L274.92 52.4274L277.08 54.4123Z" stroke="white" stroke-width="0.72" stroke-miterlimit="10"/>
<path d="M279.24 54.4141L279.24 61.0307" stroke="white" stroke-width="0.72" stroke-miterlimit="10"/>
<path d="M277.08 61.0312L281.4 61.0313" stroke="white" stroke-width="0.72" stroke-miterlimit="10"/>
<path d="M272.76 47.7969L285.72 47.7969" stroke="white" stroke-width="0.72" stroke-miterlimit="10"/>
</g>
<defs>
<clipPath id="clip0_496_9363">
<rect width="557" height="291" fill="white"/>
</clipPath>
<clipPath id="clip1_496_9363">
<rect width="216" height="33.8824" fill="white" transform="translate(149 132.059)"/>
</clipPath>
<clipPath id="clip2_496_9363">
<rect width="362.026" height="362.026" fill="white" transform="translate(149.293 -249) rotate(58.6868)"/>
</clipPath>
</defs>
</svg>
