<svg width="557" height="291" viewBox="0 0 557 291" fill="none" xmlns="http://www.w3.org/2000/svg">
<g clip-path="url(#clip0_717_9966)">
<rect width="557" height="291" fill="#AEA9EA"/>
<g clip-path="url(#clip1_717_9966)">
<path fill-rule="evenodd" clip-rule="evenodd" d="M452.363 -111.926L456.904 -112.787L458.358 -113.748L460.024 -117.002L459.344 -117.542L454.809 -116.642L453.384 -115.694L451.712 -112.478L452.363 -111.926ZM432.857 -108.228L437.036 -109.02L438.407 -109.937L440.089 -113.075L439.498 -113.604L435.323 -112.776L433.977 -111.87L432.292 -108.769L432.857 -108.228ZM444.61 -96.9803L449.169 -97.7151L450.643 -98.6773L452.377 -102.065L451.709 -102.664L447.155 -101.887L445.711 -100.938L443.971 -97.5922L444.61 -96.9803ZM414.873 -104.818L418.731 -105.55L420.029 -106.427L421.719 -109.455L421.205 -109.974L417.349 -109.209L416.074 -108.342L414.382 -105.348L414.873 -104.818ZM425.049 -93.829L429.237 -94.5037L430.626 -95.4219L432.374 -98.6824L431.796 -99.2671L427.611 -98.5534L426.247 -97.6466L424.497 -94.4251L425.049 -93.829ZM436.539 -81.4211L441.113 -82.0178L442.608 -82.9805L444.414 -86.5099L443.759 -87.1729L439.189 -86.5301L437.725 -85.5797L435.913 -82.0963L436.539 -81.4211ZM398.239 -101.664L401.811 -102.341L403.042 -103.182L404.735 -106.108L404.289 -106.618L400.716 -105.909L399.506 -105.078L397.813 -102.183L398.239 -101.664ZM407.042 -90.9279L410.902 -91.5497L412.216 -92.4279L413.97 -95.5708L413.47 -96.1413L409.61 -95.4828L408.32 -94.6155L406.565 -91.5089L407.042 -90.9279ZM382.809 -98.7383L386.126 -99.3671L387.297 -100.174L388.987 -103.006L388.6 -103.505L385.281 -102.846L384.129 -102.049L382.44 -99.2465L382.809 -98.7383ZM416.933 -78.8636L421.128 -79.4108L422.535 -80.3295L424.354 -83.721L423.789 -84.3648L419.597 -83.7751L418.216 -82.8674L416.396 -79.5189L416.933 -78.8636ZM390.41 -88.2481L393.98 -88.8236L395.225 -89.6649L396.98 -92.6978L396.547 -93.2547L392.976 -92.6458L391.752 -91.8142L390 -88.8152L390.41 -88.2481ZM368.456 -96.0168L371.545 -96.6024L372.66 -97.3783L374.344 -100.121L374.009 -100.61L370.917 -99.9963L369.819 -99.2291L368.138 -96.5144L368.456 -96.0168ZM398.915 -76.5135L402.775 -77.0172L404.105 -77.8955L405.926 -81.1589L405.441 -81.7845L401.58 -81.2415L400.275 -80.3734L398.454 -77.1492L398.915 -76.5135ZM375.003 -85.7663L378.314 -86.2998L379.497 -87.1071L381.246 -90.0376L380.874 -90.5816L377.56 -90.0163L376.397 -89.2175L374.65 -86.3186L375.003 -85.7663ZM355.071 -93.4789L357.955 -94.0256L359.02 -94.7727L360.694 -97.4309L360.405 -97.9107L357.518 -97.3378L356.469 -96.5986L354.798 -93.9662L355.071 -93.4789ZM408.492 -63.298L412.691 -63.7064L414.117 -64.625L416.009 -68.1552L415.461 -68.8623L411.263 -68.4077L409.865 -67.4999L407.971 -64.0162L408.492 -63.298ZM382.298 -74.3459L385.863 -74.8112L387.122 -75.6528L388.941 -78.7975L388.524 -79.4055L384.958 -78.9039L383.72 -78.0716L381.903 -74.9637L382.298 -74.3459ZM360.69 -83.4602L363.769 -83.9559L364.896 -84.7323L366.636 -87.5669L366.316 -88.0982L363.233 -87.5725L362.125 -86.8043L360.388 -83.9992L360.69 -83.4602ZM342.561 -91.1065L345.259 -91.6181L346.277 -92.3382L347.94 -94.9181L347.692 -95.3881L344.989 -94.8521L343.986 -94.1388L342.327 -91.5841L342.561 -91.1065ZM390.475 -61.5446L394.333 -61.92L395.679 -62.7985L397.571 -66.1896L397.103 -66.8735L393.244 -66.4555L391.923 -65.5878L390.032 -62.2389L390.475 -61.5446ZM366.926 -72.3411L370.227 -72.7717L371.423 -73.5795L373.234 -76.6139L372.878 -77.2053L369.573 -76.7406L368.398 -75.9417L366.589 -72.941L366.926 -72.3411ZM347.358 -81.3118L350.229 -81.7744L351.304 -82.5221L353.033 -85.2669L352.759 -85.7858L349.883 -85.2953L348.825 -84.5555L347.1 -81.8387L347.358 -81.3118ZM330.842 -88.8845L333.371 -89.364L334.346 -90.0592L335.995 -92.5645L335.783 -93.0252L333.249 -92.5225L332.287 -91.8339L330.643 -89.3518L330.842 -88.8845ZM399.705 -47.0944L403.905 -47.3527L405.349 -48.2703L407.321 -51.9477L406.79 -52.7234L402.591 -52.415L401.174 -51.5082L399.203 -47.8809L399.705 -47.0944ZM373.886 -59.9302L377.443 -60.2762L378.716 -61.1178L380.603 -64.3807L380.204 -65.0433L376.644 -64.6577L375.394 -63.8254L373.509 -60.6021L373.886 -59.9302ZM352.663 -70.4808L355.73 -70.8807L356.867 -71.6573L358.667 -74.589L358.364 -75.1644L355.293 -74.7324L354.173 -73.964L352.377 -71.0644L352.663 -70.4808ZM334.91 -79.3064L337.593 -79.7387L338.62 -80.4597L340.335 -83.1198L340.102 -83.6266L337.414 -83.1684L336.402 -82.4549L334.692 -79.8207L334.91 -79.3064ZM319.84 -86.7984L322.216 -87.2489L323.152 -87.9209L324.785 -90.3559L324.606 -90.8077L322.225 -90.3354L321.301 -89.6692L319.673 -87.2565L319.84 -86.7984ZM381.705 -45.9885L385.556 -46.2251L386.918 -47.1027L388.887 -50.6294L388.437 -51.3763L384.583 -51.0935L383.246 -50.226L381.28 -46.7454L381.705 -45.9885ZM358.561 -58.4389L361.851 -58.759L363.059 -59.5666L364.935 -62.7107L364.597 -63.3525L361.303 -62.9957L360.115 -62.1969L358.242 -59.0895L358.561 -58.4389ZM339.394 -68.7501L342.25 -69.1227L343.335 -69.8701L345.121 -72.7055L344.863 -73.2656L342.002 -72.8633L340.934 -72.1234L339.153 -69.3178L339.394 -68.7501ZM323.26 -77.4297L325.774 -77.8345L326.757 -78.5301L328.456 -81.1112L328.259 -81.6068L325.741 -81.1771L324.771 -80.488L323.077 -77.9318L323.26 -77.4297ZM309.493 -84.8363L311.729 -85.2604L312.628 -85.9108L314.246 -88.2791L314.095 -88.7221L311.853 -88.2773L310.965 -87.6329L309.353 -85.2852L309.493 -84.8363ZM299.742 -82.9878L301.851 -83.3875L302.717 -84.0173L304.316 -86.3229L304.192 -86.7574L302.078 -86.3378L301.223 -85.7133L299.628 -83.4276L299.742 -82.9878ZM312.335 -75.6694L314.694 -76.0494L315.637 -76.7216L317.319 -79.2281L317.154 -79.7126L314.789 -79.3094L313.859 -78.6431L312.183 -76.16L312.335 -75.6694ZM327.019 -67.136L329.685 -67.4835L330.721 -68.2042L332.49 -70.9496L332.274 -71.4954L329.602 -71.1196L328.581 -70.4059L326.817 -67.6887L327.019 -67.136ZM344.361 -57.0572L347.413 -57.354L348.561 -58.1304L350.424 -61.1638L350.138 -61.7862L347.081 -61.4552L345.951 -60.687L344.093 -57.6877L344.361 -57.0572ZM365.157 -44.9717L368.703 -45.1894L369.991 -46.0301L371.95 -49.4181L371.57 -50.1386L368.02 -49.878L366.755 -49.0467L364.8 -45.7012L365.157 -44.9717ZM302.068 -74.0153L304.287 -74.3727L305.193 -75.0231L306.856 -77.4589L306.72 -77.9329L304.496 -77.5534L303.602 -76.9087L301.944 -74.4948L302.068 -74.0153ZM315.449 -65.6268L317.944 -65.9522L318.936 -66.6478L320.687 -69.3086L320.506 -69.8405L318.005 -69.4889L317.027 -68.7998L315.282 -66.1655L315.449 -65.6268ZM331.167 -55.7733L334.006 -56.0494L335.1 -56.7967L336.946 -59.7271L336.706 -60.3312L333.862 -60.0231L332.784 -59.2834L330.944 -56.3849L331.167 -55.7733ZM349.894 -44.0339L353.168 -44.2349L354.389 -45.0418L356.335 -48.3015L356.015 -48.9971L352.735 -48.7565L351.535 -47.9583L349.595 -44.7379L349.894 -44.0339ZM372.583 -29.8098L376.425 -29.8962L377.804 -30.7721L379.853 -34.4426L379.423 -35.2569L375.577 -35.1205L374.224 -34.2544L372.179 -30.634L372.583 -29.8098ZM292.403 -72.4579L294.493 -72.7947L295.364 -73.4247L297.008 -75.7938L296.898 -76.2574L294.802 -75.8998L293.942 -75.2752L292.303 -72.927L292.403 -72.4579ZM304.61 -64.213L306.949 -64.5182L307.9 -65.1903L309.631 -67.7716L309.482 -68.2905L307.137 -67.9605L306.199 -67.2943L304.474 -64.7379L304.61 -64.213ZM318.876 -54.5771L321.523 -54.8346L322.568 -55.5549L324.395 -58.389L324.195 -58.976L321.542 -58.6885L320.512 -57.9752L318.692 -55.171L318.876 -54.5771ZM335.77 -43.166L338.804 -43.3522L339.964 -44.1277L341.893 -47.2686L341.625 -47.9412L338.586 -47.7179L337.445 -46.9505L335.522 -43.8462L335.77 -43.166ZM294.433 -62.8855L296.631 -63.1722L297.543 -63.8226L299.255 -66.3289L299.135 -66.8352L296.93 -66.5251L296.029 -65.8804L294.324 -63.3976L294.433 -62.8855ZM356.093 -29.4392L359.624 -29.5185L360.927 -30.3575L362.963 -33.8779L362.603 -34.6604L359.067 -34.5349L357.788 -33.7049L355.757 -30.2307L356.093 -29.4392ZM307.397 -53.46L309.872 -53.7009L310.871 -54.396L312.677 -57.14L312.513 -57.7107L310.032 -57.4419L309.047 -56.7529L307.248 -54.0371L307.397 -53.46ZM322.664 -42.3606L325.483 -42.5338L326.587 -43.2801L328.496 -46.3106L328.275 -46.9613L325.45 -46.754L324.362 -46.015L322.46 -43.0187L322.664 -42.3606ZM340.907 -29.0977L344.163 -29.1709L345.397 -29.9761L347.416 -33.358L347.116 -34.1112L343.854 -33.9955L342.641 -33.1986L340.629 -29.859L340.907 -29.0977ZM296.654 -52.4147L298.971 -52.6403L299.929 -53.312L301.713 -55.9712L301.582 -56.5263L299.257 -56.2745L298.312 -55.6087L296.535 -52.9757L296.654 -52.4147ZM310.469 -41.6113L313.094 -41.7725L314.148 -42.4921L316.035 -45.4195L315.854 -46.0498L313.222 -45.8566L312.183 -45.144L310.304 -42.2484L310.469 -41.6113ZM286.576 -51.4341L288.752 -51.6456L289.671 -52.2956L291.433 -54.8753L291.329 -55.4158L289.146 -55.1792L288.239 -54.535L286.484 -51.98L286.576 -51.4341ZM326.875 -28.7823L329.887 -28.85L331.059 -29.624L333.057 -32.878L332.81 -33.6037L329.791 -33.4966L328.638 -32.7303L326.648 -29.5156L326.875 -28.7823ZM299.093 -40.9123L301.544 -41.0628L302.552 -41.7573L304.415 -44.5884L304.27 -45.1997L301.811 -45.0193L300.818 -44.3311L298.962 -41.5299L299.093 -40.9123ZM346.675 -13.2991L350.188 -13.2287L351.505 -14.0656L353.622 -17.726L353.285 -18.5749L349.766 -18.5955L348.473 -17.7674L346.362 -14.1566L346.675 -13.2991ZM313.871 -28.49L316.666 -28.5527L317.78 -29.2979L319.755 -32.4334L319.555 -33.1336L316.752 -33.0342L315.654 -32.2963L313.687 -29.1973L313.871 -28.49ZM288.456 -40.2586L290.75 -40.3995L291.715 -41.0706L293.554 -43.8116L293.44 -44.4051L291.139 -44.2361L290.187 -43.571L288.356 -40.8578L288.456 -40.2586ZM331.583 -13.6009L334.817 -13.5363L336.063 -14.3394L338.159 -17.8504L337.883 -18.6647L334.641 -18.6836L333.416 -17.8887L331.328 -14.4232L331.583 -13.6009ZM301.785 -28.2181L304.385 -28.2767L305.448 -28.9949L307.398 -32.0203L307.238 -32.6968L304.629 -32.6043L303.582 -31.8927L301.64 -28.9015L301.785 -28.2181ZM317.658 -13.8795L320.646 -13.8197L321.829 -14.5916L323.9 -17.9652L323.676 -18.7475L320.68 -18.7651L319.516 -18.0006L317.454 -14.6692L317.658 -13.8795ZM290.524 -27.9652L292.95 -28.0196L293.965 -28.7128L295.889 -31.6354L295.764 -32.2898L293.33 -32.2035L292.328 -31.5164L290.413 -28.6257L290.524 -27.9652ZM304.772 -14.1372L307.54 -14.0818L308.665 -14.8251L310.709 -18.0714L310.53 -18.8242L307.753 -18.8404L306.646 -18.1042L304.61 -14.8971L304.772 -14.1372ZM336.881 3.48511L340.371 3.71718L341.703 2.88368L343.906 -0.925739L343.594 -1.84575L340.096 -2.02413L338.788 -1.199L336.593 2.55654L336.881 3.48511ZM292.81 -14.3767L295.383 -14.325L296.455 -15.0416L298.471 -18.1698L298.332 -18.8954L295.75 -18.9104L294.694 -18.2002L292.687 -15.1085L292.81 -14.3767ZM321.902 2.48893L325.11 2.70226L326.369 1.90192L328.546 -1.74599L328.294 -2.62577L325.078 -2.78967L323.84 -1.99727L321.671 1.60123L321.902 2.48893ZM281.679 -14.5992L284.075 -14.5513L285.099 -15.2431L287.085 -18.2616L286.981 -18.9615L284.575 -18.9754L283.566 -18.2898L281.589 -15.3052L281.679 -14.5992ZM308.103 1.57107L311.062 1.76797L312.256 0.998643L314.405 -2.50116L314.205 -3.34391L311.236 -3.49512L310.062 -2.73307L307.923 0.721045L308.103 1.57107ZM295.351 0.72285L298.089 0.905004L299.223 0.164157L301.342 -3.19864L301.186 -4.00758L298.438 -4.14752L297.321 -3.4135L295.214 -0.0924872L295.351 0.72285ZM283.53 -0.063229L286.071 0.105782L287.151 -0.608747L289.238 -3.84517L289.122 -4.62254L286.57 -4.75255L285.506 -4.04433L283.43 -0.846821L283.53 -0.063229ZM311.843 19.2062L315.02 19.58L316.293 18.7836L318.557 14.9908L318.331 14.041L315.144 13.7206L313.893 14.5094L311.64 18.249L311.843 19.2062ZM298.19 17.5999L301.116 17.9443L302.321 17.1782L304.552 13.5454L304.378 12.6382L301.441 12.343L300.256 13.102L298.036 16.6857L298.19 17.5999ZM285.591 16.1181L288.294 16.4361L289.439 15.6983L291.635 12.2124L291.505 11.3442L288.79 11.0711L287.664 11.8024L285.479 15.2433L285.591 16.1181ZM273.928 14.7458L276.433 15.0406L277.524 14.3293L279.683 10.9789L279.592 10.1463L277.074 9.8933L276.001 10.5987L273.853 13.9077L273.928 14.7458ZM301.384 36.5886L304.526 37.1356L305.811 36.3437L308.167 32.3976L307.971 31.3724L304.817 30.8832L303.554 31.6679L301.211 35.5569L301.384 36.5886ZM287.899 34.2407L290.787 34.7438L292.004 33.982L294.321 30.2079L294.176 29.2322L291.275 28.7817L290.078 29.5369L287.774 33.2582L287.899 34.2407ZM275.473 32.0772L278.137 32.5411L279.293 31.8072L281.57 28.1914L281.468 27.26L278.791 26.8443L277.654 27.5722L275.389 31.1397L275.473 32.0772ZM277.207 51.5287L280.052 52.2024L281.281 51.4461L283.69 47.5223L283.575 46.4731L280.715 45.8558L279.508 46.6062L277.113 50.473L277.207 51.5287ZM264.977 48.6328L267.598 49.2536L268.764 48.5243L271.128 44.7708L271.055 43.772L268.419 43.2031L267.273 43.9268L264.924 47.6277L264.977 48.6328ZM266.091 69.5023L268.888 70.3603L270.128 69.6104L272.634 65.5281L272.553 64.4L269.739 63.6033L268.52 64.348L266.03 68.3684L266.091 69.5023Z" fill="#DB33CB"/>
<path d="M464.412 -108.891L466.279 -105.485L467.061 -105.476L468.578 -108.8L468.505 -110.352L466.667 -113.772L465.881 -113.802L464.336 -110.466L464.412 -108.891Z" fill="#DB33CB"/>
<path d="M472.635 -93.8824L474.383 -90.69L475.119 -90.7209L476.554 -94.0016L476.489 -95.4951L474.766 -98.7013L474.026 -98.691L472.566 -95.3965L472.635 -93.8824Z" fill="#DB33CB"/>
<path d="M457.262 -93.4137L459.219 -90.0527L460.037 -90.087L461.615 -93.546L461.537 -95.1197L459.61 -98.4958L458.788 -98.4847L457.179 -95.0101L457.262 -93.4137Z" fill="#DB33CB"/>
<path d="M480.345 -79.8065L481.988 -76.8088L482.682 -76.8739L484.041 -80.111L483.983 -81.5499L482.364 -84.5619L481.667 -84.5159L480.284 -81.2645L480.345 -79.8065Z" fill="#DB33CB"/>
<path d="M465.881 -78.6133L467.713 -75.468L468.481 -75.5402L469.973 -78.9508L469.902 -80.4636L468.098 -83.6247L467.325 -83.5738L465.806 -80.1474L465.881 -78.6133Z" fill="#DB33CB"/>
<path d="M487.592 -66.5789L489.136 -63.759L489.792 -63.8542L491.083 -67.0473L491.03 -68.4354L489.507 -71.2699L488.849 -71.1926L487.536 -67.9855L487.592 -66.5789Z" fill="#DB33CB"/>
<path d="M449.812 -77.2876L451.866 -73.9796L452.722 -74.06L454.366 -77.6635L454.281 -79.2583L452.259 -82.5843L451.399 -82.5278L449.722 -78.9063L449.812 -77.2876Z" fill="#DB33CB"/>
<path d="M473.954 -64.7506L475.672 -61.801L476.396 -61.9063L477.807 -65.2673L477.744 -66.7245L476.051 -69.6899L475.324 -69.6049L473.887 -66.2278L473.954 -64.7506Z" fill="#DB33CB"/>
<path d="M494.413 -54.126L495.869 -51.4681L496.49 -51.5901L497.718 -54.738L497.671 -56.0792L496.234 -58.7516L495.611 -58.6463L494.364 -55.4839L494.413 -54.126Z" fill="#DB33CB"/>
<path d="M458.854 -62.7262L460.774 -59.6345L461.577 -59.751L463.128 -63.2993L463.052 -64.8322L461.161 -67.9422L460.354 -67.8472L458.773 -64.281L458.854 -62.7262Z" fill="#DB33CB"/>
<path d="M481.531 -51.7394L483.145 -48.9678L483.829 -49.1017L485.167 -52.4132L485.11 -53.8182L483.519 -56.6062L482.833 -56.4903L481.471 -53.1631L481.531 -51.7394Z" fill="#DB33CB"/>
<path d="M500.847 -42.3812L502.222 -39.8719L502.81 -40.0176L503.98 -43.1208L503.938 -44.4174L502.581 -46.941L501.99 -46.8113L500.803 -43.6935L500.847 -42.3812Z" fill="#DB33CB"/>
<path d="M506.926 -31.2859L508.225 -28.9129L508.784 -29.0792L509.9 -32.1377L509.862 -33.3928L508.579 -35.7801L508.018 -35.6287L506.886 -32.5554L506.926 -31.2859Z" fill="#DB33CB"/>
<path d="M488.657 -39.5039L490.176 -36.8939L490.823 -37.0538L492.094 -40.3152L492.043 -41.6717L490.544 -44.2975L489.895 -44.155L488.602 -40.8774L488.657 -39.5039Z" fill="#DB33CB"/>
<path d="M467.312 -49.1058L469.11 -46.2097L469.866 -46.358L471.333 -49.8504L471.264 -51.3253L469.492 -54.24L468.733 -54.1118L467.24 -50.6012L467.312 -49.1058Z" fill="#DB33CB"/>
<path d="M512.677 -20.7871L513.908 -18.5399L514.439 -18.7249L515.505 -21.7389L515.471 -22.9551L514.256 -25.2168L513.722 -25.0457L512.641 -22.0175L512.677 -20.7871Z" fill="#DB33CB"/>
<path d="M495.37 -27.976L496.804 -25.5146L497.415 -25.6965L498.625 -28.9084L498.579 -30.2191L497.165 -32.6968L496.551 -32.5312L495.321 -29.3034L495.37 -27.976Z" fill="#DB33CB"/>
<path d="M475.241 -36.3375L476.929 -33.619L477.64 -33.795L479.03 -37.2318L478.968 -38.6534L477.304 -41.3896L476.589 -41.2328L475.176 -37.7781L475.241 -36.3375Z" fill="#DB33CB"/>
<path d="M451.537 -46.1834L453.551 -43.1521L454.39 -43.3168L456.006 -47.0114L455.923 -48.5641L453.94 -51.6161L453.096 -51.4735L451.449 -47.7588L451.537 -46.1834Z" fill="#DB33CB"/>
<path d="M518.127 -10.8391L519.294 -8.70747L519.8 -8.90821L520.819 -11.8784L520.789 -13.058L519.636 -15.2039L519.129 -15.0159L518.095 -12.0317L518.127 -10.8391Z" fill="#DB33CB"/>
<path d="M501.706 -17.0966L503.06 -14.7713L503.64 -14.973L504.793 -18.1354L504.752 -19.4038L503.416 -21.745L502.834 -21.5588L501.662 -18.3803L501.706 -17.0966Z" fill="#DB33CB"/>
<path d="M482.688 -24.3441L484.276 -21.7877L484.948 -21.9876L486.266 -25.3684L486.21 -26.7404L484.645 -29.3152L483.97 -29.1328L482.63 -25.7334L482.688 -24.3441Z" fill="#DB33CB"/>
<path d="M460.405 -32.8358L462.289 -29.9998L463.077 -30.1947L464.602 -33.8265L464.528 -35.3201L462.672 -38.1763L461.88 -38.0021L460.326 -34.3503L460.405 -32.8358Z" fill="#DB33CB"/>
<path d="M523.298 -1.39868L524.407 0.625606L524.89 0.410699L525.866 -2.51608L525.839 -3.66154L524.744 -5.6999L524.26 -5.49661L523.27 -2.55574L523.298 -1.39868Z" fill="#DB33CB"/>
<path d="M507.695 -6.81234L508.977 -4.61195L509.528 -4.83056L510.629 -7.94462L510.592 -9.1734L509.327 -11.3892L508.773 -11.1845L507.656 -8.05502L507.695 -6.81234Z" fill="#DB33CB"/>
<path d="M489.697 -13.0566L491.193 -10.6484L491.829 -10.8693L493.082 -14.1952L493.032 -15.5209L491.557 -17.9469L490.918 -17.7426L489.645 -14.3986L489.697 -13.0566Z" fill="#DB33CB"/>
<path d="M528.212 7.57179L529.267 9.4967L529.728 9.26878L530.664 6.38515L530.64 5.27248L529.598 3.33395L529.136 3.55048L528.187 6.44774L528.212 7.57179Z" fill="#DB33CB"/>
<path d="M468.707 -20.3396L470.473 -17.6808L471.216 -17.9017L472.659 -21.4712L472.591 -22.9099L470.851 -25.5882L470.105 -25.3873L468.637 -21.7977L468.707 -20.3396Z" fill="#DB33CB"/>
<path d="M513.365 2.92467L514.58 5.00975L515.104 4.7756L516.156 1.70969L516.123 0.518921L514.924 -1.58183L514.398 -1.3611L513.33 1.72025L513.365 2.92467Z" fill="#DB33CB"/>
<path d="M443.911 -28.9425L446.026 -25.9796L446.904 -26.1966L448.587 -30.0462L448.497 -31.6199L446.416 -34.6059L445.533 -34.4123L443.817 -30.5395L443.911 -28.9425Z" fill="#DB33CB"/>
<path d="M496.305 -2.41517L497.717 -0.142089L498.319 -0.381524L499.513 -3.65356L499.467 -4.93541L498.075 -7.2262L497.47 -7.00248L496.258 -3.71295L496.305 -2.41517Z" fill="#DB33CB"/>
<path d="M532.887 16.1065L533.891 17.9394L534.332 17.7L535.231 14.8582L535.21 13.7765L534.218 11.9302L533.776 12.1586L532.865 15.0139L532.887 16.1065Z" fill="#DB33CB"/>
<path d="M476.496 -8.61606L478.156 -6.11866L478.856 -6.36197L480.223 -9.86965L480.162 -11.2572L478.527 -13.7743L477.824 -13.5492L476.433 -10.0215L476.496 -8.61606Z" fill="#DB33CB"/>
<path d="M518.742 12.1566L519.894 14.1352L520.394 13.8881L521.401 10.8692L521.371 9.71368L520.233 7.71938L519.732 7.95428L518.711 10.9884L518.742 12.1566Z" fill="#DB33CB"/>
<path d="M502.546 7.6341L503.88 9.78294L504.452 9.52778L505.59 6.30905L505.549 5.06774L504.232 2.90208L503.658 3.1425L502.503 6.37866L502.546 7.6341Z" fill="#DB33CB"/>
<path d="M453.216 -15.9027L455.192 -13.1345L456.015 -13.3798L457.603 -17.1589L457.521 -18.6714L455.577 -21.4622L454.749 -21.2387L453.131 -17.4369L453.216 -15.9027Z" fill="#DB33CB"/>
<path d="M523.846 20.9218L524.941 22.8018L525.418 22.5428L526.383 19.5707L526.357 18.4483L525.275 16.5529L524.797 16.8006L523.818 19.7873L523.846 20.9218Z" fill="#DB33CB"/>
<path d="M483.818 2.40481L485.379 4.75486L486.041 4.49233L487.34 1.04549L487.285 -0.294685L485.746 -2.66458L485.081 -2.41822L483.761 1.04791L483.818 2.40481Z" fill="#DB33CB"/>
<path d="M508.448 17.1397L509.712 19.1742L510.256 18.9051L511.342 15.7389L511.306 14.536L510.059 12.4847L509.513 12.7404L508.41 15.9234L508.448 17.1397Z" fill="#DB33CB"/>
<path d="M461.916 -3.71071L463.765 -1.11931L464.54 -1.38836L466.04 -5.09796L465.967 -6.55414L464.145 -9.16809L463.367 -8.91886L461.839 -5.18697L461.916 -3.71071Z" fill="#DB33CB"/>
<path d="M528.699 29.2547L529.741 31.0436L530.196 30.7742L531.122 27.8477L531.099 26.7566L530.069 24.953L529.612 25.2113L528.674 28.1526L528.699 29.2547Z" fill="#DB33CB"/>
<path d="M490.714 12.784L492.186 14.9995L492.812 14.7201L494.047 11.3329L493.999 10.0374L492.546 7.8024L491.917 8.06617L490.662 11.4727L490.714 12.784Z" fill="#DB33CB"/>
<path d="M514.04 26.1446L515.238 28.0734L515.755 27.7921L516.795 24.6775L516.762 23.5106L515.579 21.5652L515.06 21.8337L514.006 24.965L514.04 26.1446Z" fill="#DB33CB"/>
<path d="M470.068 7.71296L471.803 10.1442L472.532 9.85457L473.952 6.21335L473.887 4.80955L472.177 2.35614L471.444 2.62746L469.999 6.29057L470.068 7.71296Z" fill="#DB33CB"/>
<path d="M497.219 22.5757L498.61 24.6681L499.203 24.3742L500.381 21.0457L500.336 19.7915L498.965 17.6803L498.368 17.9596L497.173 21.3072L497.219 22.5757Z" fill="#DB33CB"/>
<path d="M519.344 34.687L520.482 36.5184L520.975 36.2267L521.97 33.1622L521.941 32.0295L520.818 30.1818L520.323 30.4617L519.314 33.5422L519.344 34.687Z" fill="#DB33CB"/>
<path d="M445.729 1.73491L447.801 4.42715L448.663 4.12791L450.315 0.191718L450.228 -1.34011L448.188 -4.05781L447.322 -3.78042L445.637 0.181176L445.729 1.73491Z" fill="#DB33CB"/>
<path d="M477.721 18.4389L479.353 20.7247L480.041 20.4173L481.388 16.8431L481.329 15.488L479.721 13.1808L479.029 13.471L477.659 17.0668L477.721 18.4389Z" fill="#DB33CB"/>
<path d="M503.367 31.829L504.682 33.8082L505.246 33.5016L506.369 30.2301L506.33 29.0154L505.031 27.0177L504.465 27.3105L503.325 30.6004L503.367 31.829Z" fill="#DB33CB"/>
<path d="M454.852 13.5867L456.789 16.1039L457.598 15.7829L459.158 11.9244L459.079 10.4505L457.171 7.90845L456.358 8.20905L454.769 12.0926L454.852 13.5867Z" fill="#DB33CB"/>
<path d="M484.922 28.5292L486.458 30.682L487.109 30.3594L488.389 26.8509L488.336 25.5415L486.821 23.3678L486.166 23.674L484.866 27.2038L484.922 28.5292Z" fill="#DB33CB"/>
<path d="M509.186 40.5866L510.431 42.4616L510.968 42.1442L512.041 38.9287L512.005 37.7508L510.775 35.8578L510.236 36.1619L509.148 39.3957L509.186 40.5866Z" fill="#DB33CB"/>
<path d="M514.701 48.8876L515.882 50.6662L516.393 50.3398L517.42 47.1787L517.388 46.0353L516.221 44.2391L515.708 44.5534L514.667 47.7321L514.701 48.8876Z" fill="#DB33CB"/>
<path d="M491.707 38.0387L493.157 40.0698L493.774 39.7345L494.992 36.2899L494.943 35.0229L493.514 32.9716L492.894 33.2918L491.657 36.757L491.707 38.0387Z" fill="#DB33CB"/>
<path d="M463.389 24.6773L465.205 27.036L465.966 26.6965L467.441 22.9138L467.37 21.4938L465.58 19.1107L464.816 19.4313L463.314 23.2384L463.389 24.6773Z" fill="#DB33CB"/>
<path d="M498.114 47.0162L499.483 48.9355L500.069 48.5893L501.229 45.207L501.186 43.9801L499.835 42.0409L499.247 42.3732L498.068 45.7754L498.114 47.0162Z" fill="#DB33CB"/>
<path d="M471.395 35.0778L473.1 37.2926L473.818 36.9375L475.215 33.2288L475.151 31.8587L473.47 29.6201L472.749 29.9577L471.328 33.6901L471.395 35.0778Z" fill="#DB33CB"/>
<path d="M504.171 55.5049L505.467 57.3215L506.024 56.9661L507.132 53.6445L507.093 52.4553L505.813 50.6192L505.255 50.9615L504.13 54.3026L504.171 55.5049Z" fill="#DB33CB"/>
<path d="M478.918 44.8506L480.521 46.934L481.199 46.5658L482.526 42.9292L482.468 41.6056L480.886 39.4991L480.206 39.8511L478.857 43.5108L478.918 44.8506Z" fill="#DB33CB"/>
<path d="M447.497 31.5942L449.529 34.0288L450.375 33.6518L451.999 29.6353L451.913 28.1435L449.912 25.6812L449.063 26.0375L447.408 30.0817L447.497 31.5942Z" fill="#DB33CB"/>
<path d="M486 54.0508L487.512 56.0145L488.153 55.6352L489.414 52.0685L489.362 50.7888L487.871 48.8028L487.226 49.1666L485.945 52.7558L486 54.0508Z" fill="#DB33CB"/>
<path d="M456.445 42.3152L458.347 44.5936L459.141 44.2004L460.674 40.2679L460.597 38.8313L458.724 36.5262L457.926 36.9L456.365 40.8595L456.445 42.3152Z" fill="#DB33CB"/>
<path d="M492.679 62.7276L494.106 64.5813L494.714 64.1928L495.914 60.694L495.867 59.455L494.459 57.5795L493.849 57.9537L492.63 61.4743L492.679 62.7276Z" fill="#DB33CB"/>
<path d="M464.825 52.3564L466.608 54.493L467.356 54.0865L468.807 50.2354L468.738 48.8502L466.981 46.6876L466.229 47.0759L464.753 50.9532L464.825 52.3564Z" fill="#DB33CB"/>
<path d="M472.69 61.78L474.366 63.7878L475.071 63.3705L476.447 59.5985L476.385 58.2611L474.733 56.2281L474.024 56.6286L472.624 60.426L472.69 61.78Z" fill="#DB33CB"/>
<path d="M439.835 50.3565L441.967 52.6993L442.851 52.2616L444.543 48.0773L444.451 46.5673L442.352 44.1939L441.463 44.61L439.738 48.8252L439.835 50.3565Z" fill="#DB33CB"/>
<path d="M480.086 70.6417L481.663 72.5318L482.33 72.1055L483.637 68.4102L483.58 67.1173L482.025 65.2026L481.355 65.6134L480.026 69.3333L480.086 70.6417Z" fill="#DB33CB"/>
<path d="M449.22 60.6678L451.213 62.8571L452.042 62.4063L453.637 58.3149L453.554 56.8615L451.592 54.6425L450.758 55.0737L449.132 59.1947L449.22 60.6678Z" fill="#DB33CB"/>
<path d="M487.054 78.9904L488.541 80.7728L489.173 80.3393L490.415 76.718L490.365 75.467L488.897 73.6606L488.263 74.0797L487 77.7248L487.054 78.9904Z" fill="#DB33CB"/>
<path d="M457.998 70.3123L459.864 72.3626L460.645 71.9013L462.152 67.8997L462.077 66.499L460.238 64.4197L459.454 64.8628L457.919 68.8932L457.998 70.3123Z" fill="#DB33CB"/>
<path d="M466.226 79.3525L467.977 81.2769L468.713 80.8071L470.14 76.8922L470.073 75.5405L468.346 73.5882L467.608 74.0411L466.155 77.9836L466.226 79.3525Z" fill="#DB33CB"/>
<path d="M473.954 87.8435L475.601 89.6534L476.296 89.1769L477.65 85.3458L477.589 84.0397L475.965 82.2031L475.267 82.6636L473.89 86.5217L473.954 87.8435Z" fill="#DB33CB"/>
<path d="M441.696 79.7789L443.786 81.8699L444.653 81.3572L446.314 77.0969L446.224 75.6268L444.167 73.5027L443.295 73.9956L441.601 78.2886L441.696 79.7789Z" fill="#DB33CB"/>
<path d="M450.898 88.9859L452.852 90.9417L453.667 90.4214L455.234 86.26L455.154 84.8437L453.228 82.8562L452.41 83.3581L450.813 87.551L450.898 88.9859Z" fill="#DB33CB"/>
<path d="M459.512 97.605L461.344 99.4383L462.111 98.9123L463.593 94.8461L463.52 93.4799L461.714 91.616L460.944 92.1249L459.435 96.2215L459.512 97.605Z" fill="#DB33CB"/>
<path d="M467.592 105.691L469.313 107.413L470.037 106.883L471.441 102.908L471.376 101.589L469.679 99.8372L468.952 100.351L467.523 104.355L467.592 105.691Z" fill="#DB33CB"/>
<path d="M433.854 99.6971L436.048 101.68L436.955 101.1L438.687 96.6602L438.59 95.1729L436.43 93.1539L435.518 93.7131L433.753 98.1891L433.854 99.6971Z" fill="#DB33CB"/>
<path d="M443.508 108.422L445.557 110.273L446.408 109.689L448.039 105.359L447.952 103.926L445.934 102.04L445.078 102.605L443.416 106.97L443.508 108.422Z" fill="#DB33CB"/>
<path d="M452.532 116.578L454.45 118.312L455.25 117.725L456.791 113.498L456.713 112.118L454.823 110.351L454.019 110.92L452.449 115.179L452.532 116.578Z" fill="#DB33CB"/>
<path d="M435.81 128.666L437.959 130.404L438.849 129.751L440.548 125.241L440.454 123.793L438.338 122.018L437.443 122.651L435.711 127.199L435.81 128.666Z" fill="#DB33CB"/>
<path d="M445.271 136.314L447.281 137.939L448.117 137.288L449.719 132.892L449.634 131.496L447.655 129.835L446.815 130.469L445.182 134.901L445.271 136.314Z" fill="#DB33CB"/>
<path d="M427.785 149.772L430.041 151.384L430.973 150.658L432.744 145.956L432.642 144.492L430.421 142.838L429.485 143.545L427.678 148.289L427.785 149.772Z" fill="#DB33CB"/>
<path fill-rule="evenodd" clip-rule="evenodd" d="M355.427 -20.0861L357.28 -18.3307L357.975 -18.3814L359.129 -20.3385L358.972 -21.197L357.134 -22.9592L356.435 -22.9163L355.267 -20.9523L355.427 -20.0861ZM363.665 -12.282L365.441 -10.5988L366.109 -10.6612L367.218 -12.5976L367.068 -13.4348L365.305 -15.1249L364.634 -15.0699L363.511 -13.1265L363.665 -12.282ZM371.566 -4.79626L373.271 -3.18079L373.912 -3.25389L374.979 -5.16982L374.836 -5.98666L373.144 -7.60878L372.5 -7.54259L371.419 -5.62002L371.566 -4.79626ZM379.151 2.39033L380.789 3.94201L381.406 3.85905L382.433 1.96368L382.296 1.16623L380.671 -0.392104L380.051 -0.315713L379.011 1.5863L379.151 2.39033ZM350.074 -11.0747L351.974 -9.34105L352.687 -9.40769L353.868 -11.4118L353.707 -12.2763L351.822 -14.0171L351.106 -13.9584L349.909 -11.9468L350.074 -11.0747ZM386.439 9.29531L388.014 10.7869L388.607 10.6949L389.597 8.81996L389.466 8.04103L387.903 6.54283L387.308 6.62855L386.306 8.51011L386.439 9.29531ZM358.521 -3.36872L360.342 -1.70709L361.026 -1.7851L362.161 -3.76705L362.007 -4.60977L360.2 -6.27867L359.513 -6.20798L358.364 -4.21876L358.521 -3.36872ZM366.619 4.01949L368.366 5.61343L369.023 5.52509L370.115 3.56513L369.967 2.74298L368.234 1.14192L367.574 1.22325L366.469 3.19039L366.619 4.01949ZM374.39 11.1091L376.068 12.6393L376.699 12.5415L377.749 10.6034L377.609 9.80095L375.944 8.26357L375.31 8.35476L374.247 10.2999L374.39 11.1091ZM344.59 -1.84425L346.54 -0.13379L347.271 -0.217087L348.481 -2.26988L348.315 -3.14023L346.381 -4.85836L345.647 -4.78303L344.421 -2.72236L344.59 -1.84425ZM381.854 17.9177L383.465 19.3881L384.072 19.2816L385.084 17.3652L384.95 16.5815L383.35 15.1041L382.74 15.2043L381.716 17.1277L381.854 17.9177ZM353.255 5.7568L355.122 7.39528L355.823 7.30119L356.985 5.27208L356.826 4.42348L354.974 2.77732L354.27 2.86432L353.093 4.9011L353.255 5.7568ZM361.557 13.0408L363.348 14.6117L364.021 14.5074L365.138 12.5018L364.986 11.6744L363.21 10.0958L362.534 10.193L361.403 12.2062L361.557 13.0408ZM369.521 20.0268L371.239 21.5343L371.885 21.4209L372.96 19.4387L372.815 18.6312L371.11 17.1161L370.461 17.2228L369.373 19.2126L369.521 20.0268ZM338.972 7.61376L340.973 9.2991L341.722 9.19828L342.962 7.09491L342.791 6.21861L340.807 4.52489L340.054 4.6177L338.798 6.7294L338.972 7.61376ZM377.165 26.733L378.815 28.1809L379.437 28.0592L380.471 26.1L380.333 25.3115L378.695 23.8562L378.071 23.9715L377.024 25.9382L377.165 26.733ZM347.862 15.1024L349.778 16.7161L350.496 16.6046L351.686 14.5268L351.523 13.6728L349.623 12.0507L348.901 12.1546L347.696 14.2407L347.862 15.1024ZM356.376 22.2747L358.212 23.8212L358.901 23.7002L360.044 21.6474L359.889 20.8147L358.068 19.2601L357.376 19.3739L356.218 21.4348L356.376 22.2747ZM364.539 29.1506L366.3 30.6339L366.961 30.5042L368.061 28.4763L367.912 27.6637L366.165 26.1724L365.5 26.2952L364.387 28.3312L364.539 29.1506ZM323.673 9.60246L325.822 11.3378L326.625 11.2296L327.951 9.04659L327.766 8.14027L325.636 6.39611L324.829 6.49579L323.485 8.68788L323.673 9.60246ZM372.37 35.7478L374.061 37.1718L374.696 37.0342L375.755 35.0307L375.612 34.2376L373.935 32.8057L373.297 32.9367L372.225 34.9481L372.37 35.7478ZM333.213 17.3073L335.268 18.9661L336.036 18.8468L337.307 16.6911L337.131 15.8089L335.094 14.1411L334.322 14.2523L333.034 16.4168L333.213 17.3073ZM342.338 24.6757L344.303 26.2629L345.039 26.1335L346.258 24.0051L346.091 23.1454L344.142 21.5494L343.401 21.671L342.166 23.8083L342.338 24.6757ZM351.072 31.7291L352.954 33.2495L353.66 33.1111L354.831 31.0093L354.671 30.1712L352.804 28.6422L352.094 28.7734L350.908 30.8837L351.072 31.7291ZM359.44 38.4875L361.245 39.945L361.923 39.7984L363.048 37.7231L362.895 36.9055L361.105 35.4394L360.424 35.5792L359.284 37.663L359.44 38.4875ZM317.509 19.6712L319.717 21.3774L320.542 21.2495L321.902 19.0102L321.711 18.0974L319.523 16.3816L318.694 16.5009L317.315 18.75L317.509 19.6712ZM367.466 44.969L369.198 46.3675L369.849 46.2134L370.931 44.1641L370.785 43.3661L369.067 41.9592L368.413 42.1067L367.317 44.1644L367.466 44.969ZM327.31 27.2456L329.419 28.8759L330.208 28.7375L331.51 26.5273L331.329 25.6388L329.238 23.9993L328.445 24.1295L327.125 26.3491L327.31 27.2456ZM336.677 34.4851L338.694 36.0446L339.449 35.8964L340.698 33.7156L340.526 32.8499L338.526 31.2816L337.767 31.4219L336.501 33.612L336.677 34.4851ZM345.638 41.412L347.57 42.9044L348.294 42.7477L349.492 40.5953L349.328 39.7518L347.413 38.2499L346.685 38.3993L345.471 40.5612L345.638 41.412ZM354.221 48.0451L356.072 49.4752L356.766 49.3108L357.917 47.1868L357.76 46.3641L355.925 44.925L355.228 45.0821L354.061 47.2156L354.221 48.0451ZM311.184 30.0034L313.453 31.6786L314.301 31.5298L315.696 29.232L315.5 28.3127L313.251 26.6272L312.4 26.7672L310.984 29.0754L311.184 30.0034ZM321.255 37.4382L323.421 39.0377L324.231 38.8787L325.567 36.6125L325.381 35.7178L323.233 34.1082L322.419 34.2588L321.064 36.5352L321.255 37.4382ZM330.874 44.5401L332.945 46.0692L333.72 45.9014L335 43.6661L334.823 42.7949L332.77 41.2561L331.991 41.4156L330.693 43.6612L330.874 44.5401ZM340.073 51.3311L342.054 52.794L342.797 52.6182L344.024 50.4133L343.855 49.5644L341.89 48.0921L341.145 48.2601L339.9 50.4751L340.073 51.3311ZM304.692 40.6094L307.025 42.2512L307.895 42.0803L309.327 39.7216L309.125 38.7963L306.813 37.1434L305.938 37.3052L304.486 39.6748L304.692 40.6094ZM315.043 47.8944L317.269 49.4613L318.101 49.2812L319.471 46.9564L319.279 46.0559L317.073 44.4781L316.237 44.6499L314.847 46.9854L315.043 47.8944ZM324.925 54.8495L327.052 56.3462L327.847 56.1578L329.159 53.8658L328.977 52.989L326.869 51.4819L326.069 51.6622L324.739 53.9644L324.925 54.8495ZM334.369 61.4961L336.403 62.9275L337.164 62.7318L338.422 60.4725L338.249 59.6181L336.232 58.1762L335.467 58.3644L334.192 60.6345L334.369 61.4961ZM298.025 51.5002L300.424 53.1063L301.319 52.9126L302.789 50.4911L302.581 49.5588L300.204 47.941L299.304 48.1256L297.812 50.5592L298.025 51.5002ZM308.668 58.6251L310.957 60.1568L311.811 59.9546L313.217 57.5688L313.019 56.6623L310.751 55.1186L309.893 55.3124L308.466 57.7101L308.668 58.6251ZM318.823 65.4233L321.008 66.8852L321.825 66.6755L323.17 64.325L322.983 63.4424L320.817 61.9687L319.996 62.1704L318.632 64.5324L318.823 65.4233ZM291.176 62.688L293.644 64.2559L294.565 64.0379L296.075 61.5503L295.861 60.6115L293.415 59.0311L292.49 59.24L290.957 61.7404L291.176 62.688ZM302.125 69.6414L304.477 71.1356L305.355 70.9097L306.798 68.4607L306.594 67.5479L304.263 66.0414L303.381 66.2585L301.916 68.72L302.125 69.6414ZM312.563 76.2716L314.808 77.6972L315.647 77.4644L317.027 75.053L316.834 74.1644L314.609 72.7271L313.766 72.9512L312.365 75.3746L312.563 76.2716ZM284.138 74.1846L286.679 75.711L287.625 75.468L289.177 72.9116L288.956 71.9666L286.439 70.4263L285.488 70.6602L283.912 73.23L284.138 74.1846ZM295.404 80.9543L297.824 82.4086L298.726 82.1582L300.208 79.6431L299.998 78.7242L297.6 77.2567L296.693 77.4984L295.189 80.0267L295.404 80.9543ZM288.5 92.576L290.99 93.9876L291.918 93.7115L293.44 91.1279L293.224 90.2025L290.757 88.7771L289.824 89.0445L288.278 91.642L288.5 92.576Z" fill="#DB33CB"/>
<path d="M269.059 88.0897L266.569 86.6781L266.348 85.7441L267.894 83.1466L268.826 82.8792L271.293 84.3046L271.51 85.2299L269.987 87.8136L269.059 88.0897Z" fill="#DB33CB"/>
<path d="M379.797 137.511L377.307 136.099L377.086 135.165L378.631 132.567L379.564 132.3L382.031 133.725L382.248 134.651L380.725 137.234L379.797 137.511Z" fill="#DB33CB"/>
<path d="M412.298 158.982L409.808 157.57L409.587 156.636L411.132 154.039L412.065 153.771L414.532 155.197L414.748 156.122L413.226 158.706L412.298 158.982Z" fill="#DB33CB"/>
<path d="M459.215 147.253L456.725 145.842L456.504 144.908L458.049 142.31L458.982 142.043L461.449 143.468L461.665 144.393L460.143 146.977L459.215 147.253Z" fill="#DB33CB"/>
<path d="M244.05 75.513L241.56 74.1014L241.339 73.1674L242.884 70.5699L243.817 70.3025L246.284 71.7279L246.5 72.6532L244.978 75.2369L244.05 75.513Z" fill="#DB33CB"/>
<path d="M438.456 167.009L435.966 165.597L435.745 164.663L437.29 162.065L438.223 161.798L440.69 163.223L440.906 164.149L439.384 166.732L438.456 167.009Z" fill="#DB33CB"/>
<path d="M242.73 55.4793L240.24 54.0677L240.019 53.1336L241.564 50.5362L242.497 50.2688L244.964 51.6941L245.181 52.6195L243.658 55.2032L242.73 55.4793Z" fill="#DB33CB"/>
<path d="M260.08 33.4399L257.59 32.0283L257.369 31.0942L258.914 28.4968L259.847 28.2294L262.314 29.6547L262.531 30.5801L261.008 33.1638L260.08 33.4399Z" fill="#DB33CB"/>
<path d="M445.889 200.941L443.399 199.53L443.178 198.596L444.723 195.998L445.656 195.731L448.123 197.156L448.34 198.081L446.817 200.665L445.889 200.941Z" fill="#DB33CB"/>
<path d="M220.084 103.91L217.595 102.499L217.373 101.565L218.919 98.9674L219.851 98.7L222.318 100.125L222.535 101.051L221.012 103.634L220.084 103.91Z" fill="#DB33CB"/>
<path d="M431.822 181.333L429.332 179.922L429.111 178.988L430.656 176.39L431.589 176.123L434.056 177.548L434.272 178.474L432.75 181.057L431.822 181.333Z" fill="#DB33CB"/>
<path d="M460.067 172.749L457.577 171.337L457.355 170.403L458.901 167.806L459.834 167.538L462.301 168.964L462.517 169.889L460.995 172.473L460.067 172.749Z" fill="#DB33CB"/>
<path d="M482.91 137.52L480.42 136.108L480.199 135.174L481.744 132.577L482.677 132.31L485.144 133.735L485.36 134.66L483.838 137.244L482.91 137.52Z" fill="#DB33CB"/>
<path d="M409.954 188.567L407.464 187.155L407.242 186.221L408.788 183.624L409.721 183.357L412.188 184.782L412.404 185.707L410.882 188.291L409.954 188.567Z" fill="#DB33CB"/>
<path d="M390.388 184.425L387.898 183.013L387.676 182.079L389.222 179.482L390.155 179.214L392.622 180.64L392.838 181.565L391.316 184.149L390.388 184.425Z" fill="#DB33CB"/>
<path d="M421.979 205.439L419.489 204.027L419.268 203.093L420.813 200.496L421.746 200.228L424.213 201.654L424.429 202.579L422.907 205.163L421.979 205.439Z" fill="#DB33CB"/>
<path d="M257.408 106.728L254.918 105.316L254.697 104.382L256.242 101.785L257.175 101.517L259.642 102.943L259.858 103.868L258.336 106.452L257.408 106.728Z" fill="#DB33CB"/>
<path d="M253.102 98.2959L250.613 96.8843L250.391 95.9503L251.937 93.3528L252.869 93.0854L255.336 94.5108L255.553 95.4361L254.03 98.0198L253.102 98.2959Z" fill="#DB33CB"/>
<path d="M215.343 87.2832L212.853 85.8716L212.631 84.9376L214.177 82.3402L215.11 82.0727L217.577 83.4981L217.793 84.4234L216.271 87.0071L215.343 87.2832Z" fill="#DB33CB"/>
<path d="M441.161 178.623L438.671 177.212L438.449 176.278L439.995 173.68L440.928 173.413L443.395 174.838L443.611 175.764L442.089 178.347L441.161 178.623Z" fill="#DB33CB"/>
<path d="M232.104 123.058L229.614 121.647L229.393 120.713L230.938 118.115L231.871 117.848L234.338 119.273L234.555 120.199L233.032 122.782L232.104 123.058Z" fill="#DB33CB"/>
<path d="M224.232 82.0684L221.742 80.6568L221.521 79.7228L223.066 77.1253L223.999 76.8579L226.466 78.2833L226.682 79.2086L225.16 81.7923L224.232 82.0684Z" fill="#DB33CB"/>
<path d="M286.05 123.41L283.56 121.998L283.339 121.064L284.884 118.467L285.817 118.2L288.284 119.625L288.5 120.55L286.978 123.134L286.05 123.41Z" fill="#DB33CB"/>
<path d="M257.587 127.897L255.097 126.485L254.876 125.551L256.421 122.954L257.354 122.686L259.821 124.112L260.037 125.037L258.515 127.621L257.587 127.897Z" fill="#DB33CB"/>
<path d="M393.763 201.504L391.273 200.093L391.052 199.159L392.597 196.561L393.53 196.294L395.997 197.719L396.213 198.644L394.691 201.228L393.763 201.504Z" fill="#DB33CB"/>
</g>
<path fill-rule="evenodd" clip-rule="evenodd" d="M440.468 -61.5162L437.116 -62.1036L436.617 -62.8881L437.795 -65.6789L438.839 -66.1934L442.186 -65.6273L442.696 -64.8454L441.523 -62.0333L440.468 -61.5162ZM425.566 -64.1279L422.352 -64.6912L421.887 -65.4552L423.078 -68.182L424.094 -68.6869L427.304 -68.144L427.779 -67.3824L426.591 -64.6354L425.566 -64.1279ZM411.271 -66.6331L408.186 -67.1737L407.755 -67.9182L408.957 -70.5836L409.945 -71.0795L413.027 -70.5584L413.468 -69.8163L412.269 -67.1315L411.271 -66.6331ZM397.548 -69.0382L394.585 -69.5574L394.184 -70.2834L395.395 -72.8901L396.358 -73.3772L399.318 -72.8766L399.729 -72.1531L398.52 -69.5276L397.548 -69.0382ZM435.079 -48.6216L431.713 -49.2772L431.217 -50.0929L432.423 -52.9507L433.477 -53.4651L436.838 -52.8321L437.345 -52.0187L436.143 -49.1388L435.079 -48.6216ZM384.363 -71.349L381.514 -71.8481L381.141 -72.5564L382.361 -75.107L383.299 -75.5856L386.145 -75.1044L386.527 -74.3984L385.31 -71.8299L384.363 -71.349ZM420.115 -51.5355L416.889 -52.1639L416.428 -52.9577L417.647 -55.7485L418.672 -56.2536L421.895 -55.6465L422.365 -54.8552L421.15 -52.0432L420.115 -51.5355ZM371.684 -73.571L368.944 -74.0512L368.597 -74.7425L369.823 -77.2394L370.738 -77.7098L373.476 -77.2468L373.831 -76.5577L372.607 -74.0436L371.684 -73.571ZM405.768 -54.3294L402.673 -54.9322L402.246 -55.7052L403.476 -58.4319L404.473 -58.9278L407.565 -58.3455L408.002 -57.5749L406.775 -54.8278L405.768 -54.3294ZM392.001 -57.0102L389.03 -57.5889L388.633 -58.3423L389.872 -61.0077L390.843 -61.4949L393.812 -60.9357L394.218 -60.1848L392.982 -57.4997L392.001 -57.0102ZM429.559 -35.4133L426.178 -36.1402L425.686 -36.9886L426.922 -39.9158L427.985 -40.4301L431.361 -39.7267L431.865 -38.8806L430.634 -35.9302L429.559 -35.4133ZM378.78 -59.5849L375.925 -60.1409L375.556 -60.8754L376.803 -63.4824L377.749 -63.9611L380.602 -63.4237L380.979 -62.6915L379.735 -60.0659L378.78 -59.5849ZM414.535 -38.6435L411.296 -39.3398L410.839 -40.165L412.087 -43.022L413.122 -43.5266L416.357 -42.8527L416.823 -42.0303L415.579 -39.151L414.535 -38.6435ZM366.072 -62.0595L363.326 -62.5942L362.985 -63.3107L364.237 -65.8617L365.159 -66.3322L367.903 -65.8154L368.254 -65.1011L367.003 -62.5322L366.072 -62.0595ZM400.137 -41.7389L397.032 -42.4065L396.609 -43.2094L397.867 -45.9994L398.873 -46.4953L401.975 -45.849L402.408 -45.0486L401.153 -42.2372L400.137 -41.7389ZM386.328 -44.7078L383.348 -45.3484L382.956 -46.1301L384.223 -48.8564L385.203 -49.3435L388.18 -48.7232L388.582 -47.9437L387.317 -45.1972L386.328 -44.7078ZM423.903 -21.8801L420.508 -22.6814L420.021 -23.5637L421.286 -26.5627L422.36 -27.0767L425.75 -26.2998L426.25 -25.4199L424.988 -22.3965L423.903 -21.8801ZM373.072 -47.5577L370.211 -48.1729L369.847 -48.9346L371.121 -51.5998L372.075 -52.0785L374.935 -51.4827L375.308 -50.7232L374.035 -48.0385L373.072 -47.5577ZM360.337 -50.2956L357.587 -50.887L357.25 -51.6296L358.53 -54.2364L359.459 -54.7069L362.209 -54.1341L362.554 -53.3937L361.276 -50.7683L360.337 -50.2956ZM408.82 -25.441L405.569 -26.2084L405.118 -27.0656L406.395 -29.9914L407.439 -30.4961L410.686 -29.7519L411.148 -28.897L409.874 -25.948L408.82 -25.441ZM394.373 -28.8516L391.258 -29.5869L390.84 -30.4207L392.128 -33.2765L393.143 -33.772L396.255 -33.0589L396.683 -32.2276L395.398 -29.3495L394.373 -28.8516ZM380.524 -32.1211L377.536 -32.8265L377.149 -33.6377L378.445 -36.4268L379.433 -36.9138L382.419 -36.2297L382.815 -35.4207L381.521 -32.6103L380.524 -32.1211ZM433.939 -3.92341L430.373 -4.84376L429.85 -5.78951L431.133 -8.94395L432.249 -9.46698L435.81 -8.57387L436.345 -7.63062L435.067 -4.44916L433.939 -3.92341ZM367.236 -35.2583L364.368 -35.9353L364.009 -36.7252L365.312 -39.4507L366.275 -39.9292L369.141 -39.2724L369.508 -38.4846L368.207 -35.739L367.236 -35.2583ZM418.106 -8.00909L414.698 -8.88885L414.214 -9.80635L415.511 -12.8801L416.595 -13.3937L420 -12.5396L420.495 -11.6242L419.202 -8.52486L418.106 -8.00909ZM402.965 -11.9164L399.704 -12.758L399.257 -13.649L400.566 -16.6461L401.619 -17.1502L404.877 -16.3331L405.335 -15.4441L404.03 -12.4229L402.965 -11.9164ZM388.471 -15.6566L385.347 -16.4628L384.934 -17.3287L386.253 -20.2525L387.277 -20.7477L390.398 -19.9648L390.822 -19.1012L389.506 -16.1541L388.471 -15.6566ZM374.584 -19.2404L371.589 -20.0133L371.207 -20.8553L372.534 -23.7094L373.53 -24.196L376.523 -23.4453L376.915 -22.6055L375.59 -19.7292L374.584 -19.2404ZM428.062 10.679L424.481 9.67277L423.962 8.68804L425.278 5.45239L426.406 4.93016L429.982 5.90808L430.513 6.89025L429.203 10.1543L428.062 10.679ZM361.265 -22.6773L358.392 -23.4189L358.039 -24.2382L359.372 -27.0259L360.342 -27.5042L363.214 -26.7837L363.576 -25.9665L362.245 -23.1577L361.265 -22.6773ZM412.163 6.21159L408.741 5.25068L408.262 4.29608L409.592 1.14467L410.687 0.632097L414.104 1.56643L414.596 2.51885L413.269 5.69666L412.163 6.21159ZM396.967 1.94206L393.694 1.02277L393.252 0.0965747L394.593 -2.97417L395.657 -3.47787L398.926 -2.58406L399.379 -1.66015L398.041 1.43629L396.967 1.94206ZM382.427 -2.14269L379.294 -3.02301L378.887 -3.92252L380.237 -6.91683L381.271 -7.41147L384.401 -6.55585L384.82 -5.65862L383.471 -2.63959L382.427 -2.14269ZM368.504 -6.05525L365.502 -6.8987L365.126 -7.77257L366.484 -10.6938L367.489 -11.1799L370.489 -10.3596L370.875 -9.48815L369.519 -6.54325L368.504 -6.05525ZM422.032 25.664L418.435 24.5674L417.921 23.542L419.271 20.2219L420.411 19.7009L424.003 20.7673L424.53 21.7902L423.185 25.1403L422.032 25.664ZM406.068 20.7966L402.633 19.7493L402.16 18.7563L403.523 15.5247L404.629 15.0127L408.059 16.0316L408.545 17.0228L407.186 20.2825L406.068 20.7966ZM390.818 16.1469L387.535 15.1462L387.098 14.1835L388.473 11.0361L389.547 10.5333L392.826 11.5074L393.275 12.4679L391.903 15.6423L390.818 16.1469ZM376.236 11.7008L373.094 10.7433L372.692 9.8089L374.076 6.74166L375.119 6.24769L378.257 7.18029L378.671 8.11201L377.289 11.2052L376.236 11.7008ZM415.842 41.0457L412.23 39.8542L411.721 38.7868L413.107 35.3787L414.258 34.8591L417.865 36.0193L418.388 37.0846L417.007 40.5232L415.842 41.0457ZM399.815 35.7586L396.368 34.6219L395.899 33.5887L397.299 30.2739L398.415 29.763L401.858 30.8703L402.338 31.9013L400.944 35.2458L399.815 35.7586ZM384.514 30.7114L381.221 29.6254L380.79 28.6242L382.2 25.3974L383.283 24.8955L386.573 25.9537L387.015 26.9525L385.609 30.2073L384.514 30.7114ZM369.89 25.8875L366.742 24.8491L366.346 23.8786L367.763 20.7356L368.816 20.2423L371.963 21.2541L372.37 22.2226L370.954 25.3928L369.89 25.8875ZM409.487 56.8409L405.86 55.5498L405.356 54.4381L406.779 50.9391L407.942 50.4201L411.563 51.6785L412.081 52.788L410.663 56.3203L409.487 56.8409ZM393.398 51.1136L389.939 49.882L389.476 48.807L390.912 45.4054L392.039 44.8959L395.495 46.0962L395.97 47.1693L394.538 50.6023L393.398 51.1136ZM378.047 45.6494L374.746 44.4735L374.321 43.4327L375.767 40.1235L376.861 39.6227L380.16 40.7692L380.596 41.8076L379.154 45.1465L378.047 45.6494ZM402.957 73.0663L399.316 71.6712L398.818 70.5128L400.28 66.9185L401.455 66.4014L405.091 67.7627L405.603 68.9189L404.146 72.5479L402.957 73.0663ZM396.247 89.74L392.594 88.2343L392.101 87.0281L393.603 83.3343L394.791 82.82L398.441 84.2894L398.947 85.4935L397.449 89.2233L396.247 89.74Z" fill="#DB33CB"/>
<g clip-path="url(#clip2_717_9966)">
<mask id="mask0_717_9966" style="mask-type:luminance" maskUnits="userSpaceOnUse" x="241" y="84" width="76" height="124">
<path d="M317 84H241V207.851H317V84Z" fill="white"/>
</mask>
<g mask="url(#mask0_717_9966)">
<path d="M316.877 153.901C316.727 153.737 316.483 153.7 316.293 153.814L278.99 175.959L241.71 153.812C241.52 153.698 241.274 153.735 241.126 153.899C240.975 154.062 240.961 154.31 241.089 154.491L278.608 207.652C278.648 207.707 278.702 207.751 278.761 207.786C278.773 207.794 278.786 207.798 278.798 207.806C278.815 207.813 278.83 207.826 278.847 207.83C278.894 207.846 278.943 207.853 278.99 207.853C278.99 207.853 278.995 207.853 278.998 207.853C279.042 207.853 279.089 207.846 279.133 207.83C279.151 207.826 279.163 207.816 279.177 207.808C279.195 207.801 279.207 207.794 279.224 207.786C279.281 207.751 279.333 207.712 279.372 207.657L316.914 154.496C317.042 154.315 317.027 154.067 316.877 153.903V153.901ZM278.52 176.776V205.899L243.129 155.754L278.52 176.776ZM279.458 205.899V176.776L314.871 155.751L279.458 205.899Z" fill="white"/>
<path d="M241.005 147.059C241.005 147.133 241.02 147.205 241.052 147.272C241.052 147.277 241.052 147.282 241.057 147.287C241.062 147.294 241.071 147.299 241.076 147.306C241.091 147.331 241.101 147.356 241.121 147.376C241.143 147.401 241.17 147.41 241.195 147.43C241.209 147.443 241.217 147.46 241.232 147.47L247.482 151.185H247.484L256.397 156.484L259.986 158.622C259.986 158.622 259.994 158.622 259.999 158.624L266.244 162.335L272.494 166.05L278.749 169.768C278.749 169.768 278.749 169.768 278.751 169.768C278.754 169.768 278.751 169.768 278.754 169.771C278.761 169.776 278.769 169.771 278.776 169.776C278.84 169.808 278.909 169.832 278.988 169.832C278.988 169.832 278.99 169.832 278.993 169.832H278.997C279.079 169.832 279.15 169.808 279.217 169.771C279.217 169.771 279.217 169.771 279.219 169.771C279.219 169.771 279.219 169.771 279.222 169.768C279.224 169.766 279.222 169.768 279.224 169.768L285.469 166.055C285.469 166.055 285.481 166.055 285.489 166.05L291.739 162.335C291.739 162.335 291.754 162.322 291.761 162.315L297.967 158.626C297.967 158.626 297.986 158.624 297.996 158.619L304.246 154.898C304.246 154.898 304.251 154.894 304.254 154.891L310.479 151.19C310.479 151.19 310.494 151.19 310.501 151.185L316.751 147.47C316.778 147.455 316.788 147.425 316.81 147.408C316.823 147.396 316.84 147.391 316.852 147.376C316.862 147.363 316.869 147.349 316.877 147.336C316.899 147.306 316.919 147.282 316.931 147.25C316.953 147.198 316.963 147.145 316.966 147.091C316.966 147.074 316.978 147.059 316.978 147.039C316.978 147.019 316.963 147.004 316.961 146.985C316.953 146.935 316.936 146.888 316.914 146.843C316.904 146.824 316.897 146.804 316.884 146.784L279.392 84.2268C279.392 84.2268 279.382 84.2169 279.377 84.2095C279.362 84.1872 279.342 84.1649 279.323 84.1451C279.306 84.1278 279.291 84.1104 279.273 84.098C279.254 84.0832 279.231 84.0708 279.207 84.0584C279.185 84.046 279.163 84.0336 279.138 84.0262C279.131 84.0237 279.123 84.0188 279.113 84.0163C279.096 84.0113 279.081 84.0138 279.064 84.0113C279.039 84.0064 279.015 84.0039 278.988 84.0039C278.961 84.0039 278.936 84.0089 278.909 84.0113C278.894 84.0138 278.877 84.0113 278.862 84.0163C278.855 84.0163 278.847 84.0237 278.84 84.0262C278.815 84.0336 278.793 84.046 278.769 84.0584C278.746 84.0708 278.724 84.0807 278.707 84.0956C278.687 84.1104 278.672 84.1278 278.655 84.1451C278.635 84.1649 278.616 84.1847 278.601 84.2095C278.596 84.2169 278.591 84.2194 278.586 84.2268L241.067 146.821C241.03 146.883 241.012 146.95 241.007 147.019C241.007 147.026 241 147.032 241 147.041C241 147.049 241.005 147.054 241.005 147.061V147.059ZM304.079 153.903L295.659 145.625C296.57 144.827 297.403 144.022 298.132 143.249L309.375 150.752L304.076 153.9L304.079 153.903ZM297.9 157.576L291.906 148.528C292.949 147.832 293.971 147.069 294.956 146.251L303.244 154.401L297.903 157.576H297.9ZM291.736 161.237L287.689 150.869C288.879 150.326 290.022 149.702 291.106 149.026L297.09 158.057L291.736 161.237ZM285.597 164.888L283.407 152.37C283.437 152.362 283.466 152.355 283.493 152.347C283.597 152.323 283.698 152.295 283.799 152.268C284.797 152.013 285.809 151.679 286.829 151.257L290.918 161.728L285.597 164.891V164.888ZM260.896 158.062L266.879 149.03C267.963 149.709 269.109 150.331 270.299 150.873L266.249 161.242L260.896 158.062ZM256.769 155.609L254.744 154.403L263.034 146.259C263.78 146.88 264.551 147.453 265.327 148C265.347 148.015 265.369 148.03 265.389 148.045C265.621 148.206 265.847 148.377 266.081 148.532L260.085 157.584L256.769 155.612V155.609ZM248.605 150.757L259.849 143.254C260.58 144.027 261.413 144.832 262.327 145.632L253.904 153.905L248.605 150.757ZM299.47 140.225C299.346 140.391 299.218 140.557 299.085 140.727C298.979 140.864 298.866 141.003 298.75 141.141C298.74 141.151 298.733 141.163 298.723 141.174C297.415 142.754 295.565 144.609 293.335 146.333C293.262 146.39 293.187 146.447 293.114 146.504C292.961 146.62 292.806 146.737 292.65 146.851C292.522 146.945 292.392 147.037 292.264 147.131C292.03 147.297 291.793 147.46 291.554 147.623C291.431 147.705 291.308 147.789 291.185 147.871C289.849 148.746 288.415 149.543 286.908 150.197C286.908 150.197 286.908 150.197 286.906 150.197C286.573 150.341 286.24 150.477 285.91 150.603C285.856 150.623 285.802 150.643 285.748 150.663C285.477 150.764 285.206 150.859 284.937 150.948C284.866 150.97 284.797 150.995 284.725 151.017C284.067 151.228 283.412 151.403 282.769 151.54C282.759 151.54 282.752 151.547 282.742 151.552C281.67 151.782 280.577 151.924 279.468 151.956V130.656L286.977 134.087L299.698 139.9C299.662 139.952 299.627 140.004 299.588 140.059C299.548 140.113 299.509 140.168 299.467 140.222L299.47 140.225ZM274.58 152.372L272.388 164.891L267.067 161.728L271.156 151.252C271.634 151.45 272.112 151.626 272.59 151.79C272.597 151.79 272.602 151.795 272.61 151.797C272.886 151.892 273.159 151.978 273.432 152.06C273.457 152.067 273.482 152.075 273.506 152.082C273.76 152.157 274.014 152.226 274.267 152.29C274.319 152.303 274.368 152.317 274.42 152.33C274.474 152.342 274.526 152.36 274.58 152.372ZM275.226 151.552C275.226 151.552 275.221 151.552 275.219 151.549C274.548 151.406 273.869 151.22 273.184 150.997C273.169 150.992 273.154 150.987 273.139 150.983C272.457 150.759 271.77 150.497 271.082 150.197C271.075 150.195 271.067 150.197 271.06 150.192C269.631 149.571 268.266 148.82 266.99 147.995C266.409 147.621 265.832 147.222 265.261 146.801C265.157 146.725 265.054 146.648 264.95 146.568C264.803 146.457 264.657 146.345 264.512 146.231C264.206 145.994 263.908 145.753 263.62 145.513C263.603 145.498 263.583 145.483 263.566 145.468C262.305 144.413 261.196 143.336 260.262 142.323C260.262 142.323 260.262 142.323 260.262 142.32C260.048 142.087 259.839 141.857 259.639 141.624C259.59 141.567 259.545 141.515 259.499 141.458C259.371 141.31 259.247 141.161 259.127 141.012C259.055 140.923 258.981 140.834 258.912 140.747C258.779 140.579 258.649 140.411 258.526 140.245C258.466 140.165 258.412 140.091 258.356 140.014C258.329 139.977 258.304 139.94 258.277 139.903L267.791 135.555L278.52 130.653V151.961C277.406 151.929 276.305 151.787 275.226 151.555V151.552ZM242.486 147.121L257.402 140.304C257.902 141.022 258.513 141.788 259.198 142.556L247.706 150.224L242.486 147.121ZM275.502 152.565C276.492 152.756 277.5 152.87 278.52 152.897V168.537L273.253 165.406L275.502 152.565ZM279.471 152.897C280.49 152.87 281.498 152.756 282.488 152.565L284.735 165.401L279.471 168.53V152.897ZM298.787 142.553C299.356 141.912 299.874 141.27 300.322 140.651C300.401 140.542 300.48 140.435 300.551 140.331C300.558 140.321 300.566 140.312 300.571 140.301L309.341 144.307L309.407 144.337L315.492 147.118L310.274 150.22L298.785 142.553H298.787ZM309.306 143.254L309.252 143.229L279.461 129.613V86.1688L315.325 146.001L309.309 143.254H309.306ZM278.52 86.1688V129.613L271.979 132.603L258.405 138.808L242.655 146.006L278.52 86.1688Z" fill="white"/>
</g>
</g>
</g>
<defs>
<clipPath id="clip0_717_9966">
<rect width="557" height="291" fill="white"/>
</clipPath>
<clipPath id="clip1_717_9966">
<rect width="356.283" height="356.283" fill="white" transform="translate(464.056 274.453) rotate(-153.303)"/>
</clipPath>
<clipPath id="clip2_717_9966">
<rect width="76" height="124" fill="white" transform="translate(241 84)"/>
</clipPath>
</defs>
</svg>
