<svg width="64" height="64" viewBox="0 0 64 64" fill="none" xmlns="http://www.w3.org/2000/svg">
    <path fill-rule="evenodd" clip-rule="evenodd" d="M8.10623e-06 57.0662L6.93251 63.9987L6.93119 64H57.0688L57.0675 63.9987L64 57.0662V6.93115L57.0689 0H6.93116L8.10623e-06 6.93116L0 6.93115L8.10623e-06 57.0662Z" fill="#070B09" />
    <path fill-rule="evenodd" clip-rule="evenodd" d="M43.519 12.9239L45.1552 12.5333L57.9555 37.8577L57.5575 39.0289L32.3734 51.099L31.6266 51.099L6.44254 39.0297L6.04443 37.8585L18.8448 12.5341L20.481 12.9247V36.1837L31.3937 25.4429L32.6062 25.4428L43.519 36.183V12.9239ZM44.7351 39.113L36.3745 47.2625L53.377 39.1135L44.7351 39.113ZM55.7776 37.3829L45.2483 37.3823V16.5516L55.7776 37.3829ZM32.8646 48.2678L43.1475 38.2446L32.8646 28.1245V48.2678ZM31.1354 28.1246V48.2679L20.8525 38.2454L31.1354 28.1246ZM18.7517 37.3831L8.22238 37.3837L18.7517 16.5523V37.3831ZM10.6232 39.1143L27.6253 47.2625L19.2649 39.1138L10.6232 39.1143Z" fill="#00F554" />
</svg>
