<svg width="325" height="224" viewBox="0 0 325 224" fill="none" xmlns="http://www.w3.org/2000/svg">
<g clip-path="url(#clip0_4215_328)">
<path d="M34.2389 91.0312L29.9327 98.2055H21.1901V132.97H13.0488V98.2055H0V91.0312H34.2389Z" fill="#9EA4A0"/>
<path d="M79.6257 91.0312L91.5728 132.958H83.1812L78.6897 116.432L75.5924 123.631H65.5629L62.9629 132.977H54.6006L66.5606 91.0312H79.6257ZM78.6897 116.432L73.4669 97.6208H72.7292L67.4804 116.432H78.6897Z" fill="#9EA4A0"/>
<path d="M126.845 91.0312V125.796H142.39L146.8 132.996H118.704V91.0312H126.845Z" fill="#9EA4A0"/>
<path d="M184.084 90.1973C195.112 90.1973 201.826 96.8342 201.826 107.548V116.397C201.826 127.427 195.105 133.758 184.078 133.758C173.05 133.758 166.336 127.415 166.336 116.41V107.561C166.362 96.8342 173.057 90.1973 184.084 90.1973ZM174.474 116.792C174.474 122.841 177.545 126.722 184.084 126.722C190.805 126.722 193.695 122.589 193.695 116.792V107.191C193.695 101.268 190.12 97.2577 184.084 97.2577C177.86 97.2577 174.474 101.524 174.474 107.191V116.792Z" fill="#9EA4A0"/>
<path d="M257.05 103.492V105.277H249.172V104.013C249.172 99.2157 246.022 97.1203 241.112 97.1203C236.805 97.1203 234.153 99.2157 234.153 102.098C234.153 106.058 237.962 106.772 243.159 107.92L243.712 108.049C252.587 109.964 257.81 113.027 257.81 120.637C257.81 129.088 251.037 133.81 241.846 133.81C231.319 133.81 224.543 128.295 224.543 118.466V117.139H232.551V118.21C232.551 123.384 235.57 126.86 242.126 126.86C247.352 126.86 249.818 124.152 249.818 121.039C249.818 117.388 246.617 116.187 240.946 114.986L240.393 114.86C231.449 112.954 226.145 109.952 226.145 102.341C226.145 94.8606 232.736 90.1895 241.095 90.1895C250.329 90.1989 257.05 95.0913 257.05 103.492Z" fill="#9EA4A0"/>
<path d="M293.941 121.238H281.89V132.957H293.941V121.238Z" fill="#9EA4A0"/>
<path d="M309.457 121.238H297.406V132.957H309.457V121.238Z" fill="#9EA4A0"/>
<path d="M293.941 106.146H281.89V117.865H293.941V106.146Z" fill="#9EA4A0"/>
<path d="M325 91.0332H312.949V102.752H325V91.0332Z" fill="#9EA4A0"/>
<path d="M309.457 91.0332H297.406V102.752H309.457V91.0332Z" fill="#9EA4A0"/>
<path d="M325 106.146H312.949V117.865H325V106.146Z" fill="#9EA4A0"/>
</g>
<defs>
<clipPath id="clip0_4215_328">
<rect width="325" height="224" fill="white"/>
</clipPath>
</defs>
</svg>
