<svg width="80" height="32" viewBox="0 0 80 32" fill="none" xmlns="http://www.w3.org/2000/svg">
<g clip-path="url(#clip0_12240_41994)">
<mask id="mask0_12240_41994" style="mask-type:luminance" maskUnits="userSpaceOnUse" x="0" y="9" width="80" height="14">
<path d="M79.872 9.15536H0V22.9432H79.872V9.15536Z" fill="white"/>
</mask>
<g mask="url(#mask0_12240_41994)">
<mask id="mask1_12240_41994" style="mask-type:luminance" maskUnits="userSpaceOnUse" x="0" y="9" width="80" height="14">
<path d="M79.872 9.15536H0V22.9432H79.872V9.15536Z" fill="white"/>
</mask>
<g mask="url(#mask1_12240_41994)">
<path d="M0.325658 20.3064C0.25533 20.474 0.218946 20.6537 0.218588 20.8352C0.218588 21.5878 0.858095 22.2745 1.9152 22.8004C2.01169 22.8471 2.11693 22.8731 2.22416 22.8769C2.33138 22.8806 2.43819 22.862 2.53776 22.8222C2.63732 22.7825 2.72741 22.7224 2.80222 22.6459C2.87708 22.5694 2.93498 22.4782 2.97229 22.3781L4.15013 19.5597C4.35638 19.0692 4.51924 18.5617 4.63679 18.043C2.45445 18.4072 0.809436 19.2391 0.35389 20.257L0.33539 20.3006L0.325658 20.3064ZM4.63305 13.9902C4.5155 13.4715 4.35265 12.964 4.14635 12.4735L2.96854 9.65411C2.93106 9.55406 2.87294 9.46293 2.79798 9.38655C2.72301 9.31016 2.63282 9.25021 2.53319 9.21053C2.43356 9.17085 2.32673 9.15237 2.21948 9.15618C2.11225 9.16003 2.007 9.18614 1.91049 9.23283C0.854364 9.75775 0.214844 10.4454 0.214844 11.1979C0.215279 11.3795 0.251661 11.5592 0.321914 11.7268V11.7326L0.340414 11.7762C0.805694 12.7941 2.45072 13.6251 4.63305 13.9902ZM12.3176 9.23283C13.3747 9.75775 14.0142 10.4454 14.0142 11.1979C14.0114 11.3799 13.9731 11.5595 13.9013 11.7268L13.8857 11.7626C13.4341 12.7873 11.7851 13.6231 9.59597 13.9902C9.71352 13.4715 9.87634 12.964 10.0827 12.4735L11.2605 9.65411C11.2977 9.55403 11.3556 9.46277 11.4305 9.38632C11.5054 9.30986 11.5955 9.24983 11.6951 9.21015C11.7947 9.17047 11.9015 9.15198 12.0088 9.15587C12.116 9.15976 12.2211 9.18598 12.3176 9.23283ZM9.60269 18.043C9.71804 18.5613 9.87892 19.0685 10.0835 19.5587L11.2614 22.3781C11.2986 22.4782 11.3566 22.5694 11.4314 22.6459C11.5062 22.7224 11.5963 22.7825 11.6959 22.8222C11.7955 22.862 11.9023 22.8806 12.0095 22.8769C12.1167 22.8731 12.2219 22.8471 12.3184 22.8004C13.3755 22.2745 14.0151 21.5878 14.0151 20.8352C14.0142 20.6537 13.9779 20.4741 13.908 20.3064L13.8924 20.2706C13.4427 19.2459 11.788 18.4091 9.60269 18.043ZM9.52837 14.5901C11.078 14.3528 12.3658 13.8909 13.2545 13.2875L13.0024 13.8889C12.4378 15.2505 12.4378 16.7791 13.0024 18.1408L13.2526 18.7402C12.3629 18.1369 11.0751 17.6797 9.52741 17.4395L9.48649 17.4337C8.70172 17.3156 7.90904 17.257 7.11531 17.2584C6.32357 17.2572 5.53285 17.3159 4.75 17.4337L4.70913 17.4395C3.16045 17.6759 1.87268 18.1379 0.983004 18.7412L1.23413 18.1408C1.79875 16.7791 1.79875 15.2505 1.23413 13.8889L0.983004 13.2875C1.86879 13.8938 3.15657 14.3528 4.7052 14.5901L4.74612 14.596C6.31794 14.8284 7.91565 14.8284 9.48749 14.596L9.52837 14.5901Z" fill="white"/>
<path d="M20.9766 20.3835V11.7374H22.1322V15.5671H26.543V11.7374H27.6987V20.3847H26.543V16.5922H22.1322V20.3847H20.9766V20.3835ZM33.4216 13.5902H34.651L31.2963 21.8541C31.1476 22.2375 30.7871 22.4845 30.3638 22.4845H28.2894V21.5214H30.29L30.8991 20.0148L28.2909 13.5914H29.5203L31.471 18.7551L33.4216 13.5914V13.5902ZM36.3318 14.0842C36.3318 14.3436 36.3318 14.5657 36.3069 14.8499H36.3318C36.8161 13.9601 37.6861 13.4166 38.7918 13.4166C40.4944 13.4166 41.9346 14.6638 41.9346 16.9497C41.9346 19.2355 40.4929 20.5572 38.7918 20.5572C37.6861 20.5572 36.8161 20.0137 36.3318 19.1239H36.3069C36.3318 19.4081 36.3318 19.6302 36.3318 19.8896V22.4834H35.2136V13.5902H36.3318V14.0842ZM38.5311 19.593C39.8478 19.6054 40.7675 18.5307 40.7675 16.9497C40.7675 15.3686 39.8478 14.3683 38.5311 14.3807C37.2018 14.3932 36.3193 15.443 36.3193 16.9373C36.3193 18.4315 37.2018 19.5806 38.5311 19.593ZM48.8756 16.4681V17.3579H43.5336C43.6699 18.754 44.5149 19.5942 45.6829 19.5942C46.6028 19.5942 47.3354 19.0754 47.6089 18.2973H48.8131C48.5273 19.6066 47.3104 20.5583 45.6829 20.5583C43.6948 20.5583 42.353 19.1374 42.353 16.988C42.353 14.8386 43.7198 13.4177 45.6829 13.4177C47.5214 13.4177 48.8756 14.727 48.8756 16.4693V16.4681ZM45.6829 14.3807C44.4899 14.3807 43.6822 15.2581 43.5461 16.37H47.745C47.6202 15.2085 46.8374 14.3807 45.6829 14.3807ZM49.707 20.3835V13.5891H50.8003V14.7754H50.8253C51.1483 14.1202 51.7699 13.4166 52.8622 13.4166H53.5212V14.3796H52.7137C51.5705 14.3796 50.8253 15.1329 50.8253 16.5539V20.3835H49.707ZM55.1952 14.0842C55.1952 14.3436 55.1952 14.5657 55.1702 14.8499H55.1952C55.6795 13.9601 56.5492 13.4166 57.6551 13.4166C59.3573 13.4166 60.798 14.6638 60.798 16.9497C60.798 19.2355 59.3563 20.5572 57.6551 20.5572C56.5492 20.5572 55.6795 20.0137 55.1952 19.1239H55.1702C55.1952 19.4081 55.1952 19.6302 55.1952 19.8896V20.3835H54.0767V10.5014H55.1952V14.0842ZM57.3942 19.593C58.7109 19.6054 59.6308 18.5307 59.6308 16.9497C59.6308 15.3686 58.7109 14.3683 57.3942 14.3807C56.065 14.3932 55.1828 15.443 55.1828 16.9373C55.1828 18.4315 56.065 19.5806 57.3942 19.593ZM64.8353 20.5572C62.9469 20.5572 61.4433 19.2604 61.4433 16.9869C61.4433 14.7134 62.9458 13.4166 64.8353 13.4166C66.7248 13.4166 68.2265 14.701 68.2265 16.9869C68.2265 19.2728 66.7237 20.5572 64.8353 20.5572ZM64.8353 19.593C66.0771 19.5806 67.0595 18.7033 67.0595 16.9869C67.0595 15.2705 66.0784 14.3932 64.8353 14.3807C63.5935 14.3683 62.6113 15.2581 62.6113 16.9869C62.6113 18.7157 63.5922 19.6054 64.8353 19.593ZM68.8366 20.3835V10.5014H69.9549V20.3835H68.8366ZM71.1572 12.4411V11.2796H72.3252V12.4411H71.1572ZM71.1822 20.3835V13.5891H72.3003V20.3835H71.1822ZM76.5093 20.5572C74.4837 20.5572 73.1171 19.1363 73.1171 16.9745C73.1171 14.8127 74.3839 13.4166 76.5093 13.4166C78.4477 13.4166 79.5161 14.6638 79.6645 16.184H78.4961C78.4212 15.2209 77.7264 14.3807 76.5081 14.3807C75.1291 14.3807 74.2841 15.4555 74.2841 16.9745C74.2841 18.5803 75.2526 19.593 76.5081 19.593C77.7637 19.593 78.3839 18.6785 78.4961 17.9251H79.6645C79.4785 19.3089 78.3852 20.5561 76.5093 20.5561V20.5572Z" fill="white"/>
</g>
</g>
</g>
<defs>
<clipPath id="clip0_12240_41994">
<rect width="80" height="14" fill="white" transform="translate(0 9)"/>
</clipPath>
</defs>
</svg>
