<svg width="75" height="33" viewBox="0 0 75 33" fill="none" xmlns="http://www.w3.org/2000/svg">
<g clip-path="url(#clip0_12240_41945)">
<path d="M18.8003 19.4349C18.3987 19.0339 18.1797 18.4688 18.1797 17.7396H19.5304C19.5304 18.086 19.6216 18.3412 19.7859 18.5417C19.9684 18.7422 20.2057 18.8334 20.516 18.8334H21.6112C21.9032 18.8334 22.1405 18.7787 22.323 18.6511C22.5056 18.5235 22.5968 18.3594 22.5968 18.1589V17.8307C22.5968 17.5026 22.3595 17.3021 21.885 17.2292L20.0597 16.9193C19.4756 16.8281 19.0193 16.6276 18.709 16.3542C18.3987 16.0807 18.2527 15.7162 18.2527 15.2787V14.7318C18.2527 14.3854 18.344 14.0755 18.5265 13.8021C18.709 13.5287 18.9828 13.3281 19.3296 13.1823C19.6764 13.0365 20.078 12.9636 20.5343 12.9636H21.6477C22.0675 12.9636 22.4508 13.0547 22.7793 13.237C23.1079 13.4193 23.3634 13.6563 23.546 13.9844C23.7285 14.3125 23.8197 14.6771 23.8197 15.0964H22.4691C22.4691 14.8229 22.396 14.6042 22.25 14.4219C22.104 14.2578 21.9032 14.1667 21.6477 14.1667H20.5343C20.2605 14.1667 20.0415 14.2214 19.8589 14.349C19.6947 14.4584 19.6034 14.6224 19.6034 14.8229V15.0964C19.6034 15.4245 19.8224 15.625 20.2787 15.7162L22.0857 16.0261C22.6881 16.1354 23.1444 16.3177 23.4547 16.5912C23.765 16.8646 23.9293 17.1927 23.9293 17.6302V18.2865C23.9293 18.6328 23.838 18.9427 23.6372 19.2162C23.4364 19.4896 23.1627 19.6901 22.8159 19.836C22.4691 19.9818 22.0675 20.0547 21.5929 20.0547H20.4613C19.7312 20.0547 19.1653 19.8542 18.7638 19.4531L18.8003 19.4349Z" fill="white"/>
<path d="M25.0967 14.349C24.9506 14.2031 24.8594 14.0026 24.8594 13.7656C24.8594 13.5287 24.9324 13.3281 25.0967 13.1823C25.2427 13.0365 25.4617 12.9636 25.7172 12.9636C25.9728 12.9636 26.1736 13.0365 26.3378 13.1823C26.4839 13.3281 26.5751 13.5287 26.5751 13.7656C26.5751 14.0026 26.5021 14.2031 26.3378 14.349C26.1918 14.4948 25.9728 14.5677 25.7172 14.5677C25.4617 14.5677 25.2609 14.4948 25.0967 14.349ZM25.0419 15.0417H26.3926V19.9636H25.0419V15.0417Z" fill="white"/>
<path d="M28.1281 19.599C27.8543 19.3438 27.7266 18.9609 27.7266 18.4505V13.0547H29.0773V18.3594C29.0773 18.5234 29.1138 18.6328 29.1868 18.7057C29.2598 18.7786 29.3693 18.8151 29.5336 18.8151H30.0629V19.9635H29.4241C28.84 19.9635 28.4019 19.8359 28.1281 19.599Z" fill="white"/>
<path d="M30.8662 14.349C30.7202 14.2031 30.6289 14.0026 30.6289 13.7656C30.6289 13.5287 30.7019 13.3281 30.8662 13.1823C31.0122 13.0365 31.2312 12.9636 31.4868 12.9636C31.7423 12.9636 31.9431 13.0365 32.1074 13.1823C32.2534 13.3281 32.3447 13.5287 32.3447 13.7656C32.3447 14.0026 32.2716 14.2031 32.1074 14.349C31.9613 14.4948 31.7423 14.5677 31.4868 14.5677C31.2312 14.5677 31.0305 14.4948 30.8662 14.349ZM30.8114 15.0417H32.1621V19.9636H30.8114V15.0417Z" fill="white"/>
<path d="M34.2969 19.7995C33.9683 19.6354 33.731 19.3984 33.5485 19.1068C33.366 18.8151 33.293 18.4688 33.293 18.0859V16.9375C33.293 16.5547 33.3842 16.2083 33.5485 15.9167C33.731 15.625 33.9683 15.388 34.2786 15.224C34.5889 15.0599 34.954 14.9688 35.3738 14.9688H36.1586C36.5602 14.9688 36.907 15.0417 37.199 15.2057C37.5093 15.3698 37.7284 15.5885 37.8926 15.8802C38.0569 16.1719 38.1482 16.5 38.1482 16.8646H36.8157C36.8157 16.6458 36.761 16.4635 36.6332 16.3177C36.5054 16.1901 36.3594 16.1172 36.1586 16.1172H35.392C35.1547 16.1172 34.9722 16.2083 34.8262 16.3724C34.6802 16.5365 34.6072 16.7552 34.6072 17.0286V17.9948C34.6072 18.2682 34.6802 18.487 34.8262 18.651C34.9722 18.8151 35.1547 18.9063 35.392 18.9063H36.1586C36.3777 18.9063 36.5419 18.8333 36.6697 18.6875C36.7975 18.5417 36.8705 18.3411 36.8705 18.0859H38.2029C38.2029 18.6875 38.0204 19.1615 37.6371 19.526C37.272 19.8906 36.7792 20.0729 36.1586 20.0729H35.3738C34.954 20.0729 34.5889 19.9818 34.2786 19.8177L34.2969 19.7995Z" fill="white"/>
<path d="M39.8281 19.7995C39.4996 19.6354 39.2623 19.4166 39.0798 19.1068C38.8972 18.8151 38.8242 18.4687 38.8242 18.0859V16.9375C38.8242 16.5547 38.9155 16.2083 39.098 15.8984C39.2805 15.6068 39.5178 15.3698 39.8464 15.2057C40.1749 15.0416 40.54 14.9505 40.9415 14.9505H41.8359C42.2557 14.9505 42.6208 15.0416 42.9311 15.2057C43.2596 15.3698 43.4969 15.6068 43.6794 15.8984C43.8619 16.1901 43.9532 16.5364 43.9532 16.9375V18.0859C43.9532 18.4687 43.8619 18.8151 43.6794 19.1068C43.4969 19.3984 43.2596 19.6354 42.9311 19.7995C42.6025 19.9635 42.2375 20.0364 41.8176 20.0364H40.9233C40.5035 20.0364 40.1384 19.9635 39.8281 19.7995ZM41.7994 18.888C42.0367 18.888 42.2375 18.7969 42.3835 18.6328C42.5295 18.4687 42.6025 18.25 42.6025 17.9765V17.0104C42.6025 16.737 42.5295 16.5182 42.3835 16.3541C42.2375 16.1901 42.0549 16.0989 41.8176 16.0989H40.9598C40.7225 16.0989 40.54 16.1901 40.3939 16.3541C40.2479 16.5182 40.1749 16.737 40.1749 17.0104V17.9765C40.1749 18.25 40.2479 18.4687 40.3939 18.6328C40.54 18.7969 40.7225 18.888 40.9598 18.888H41.8176H41.7994Z" fill="white"/>
<path d="M44.8815 15.0416H46.1227V15.625C46.2687 15.4245 46.4513 15.2604 46.6885 15.1328C46.9258 15.0052 47.1449 14.9505 47.3821 14.9505H47.9662C48.4956 14.9505 48.9154 15.1146 49.2439 15.4427C49.5725 15.7708 49.7185 16.2083 49.7185 16.737V19.9453H48.3678V16.7916C48.3678 16.5911 48.313 16.4271 48.2035 16.2995C48.094 16.1719 47.948 16.1172 47.7837 16.1172H47.1996C46.9623 16.1172 46.7616 16.2083 46.579 16.3724C46.3965 16.5364 46.2687 16.7552 46.214 17.0286V19.9635H44.8633V15.0416H44.8815Z" fill="white"/>
<path d="M53.973 19.7083C53.7905 19.5443 53.6992 19.3073 53.6992 19.0339V13.0547H57.0029C57.5323 13.0547 57.9886 13.1458 58.3901 13.3464C58.7917 13.5469 59.102 13.8203 59.321 14.1849C59.5401 14.5495 59.6496 14.9688 59.6496 15.4427V17.375C59.6496 18.2318 59.4305 18.8698 58.9925 19.3073C58.5544 19.7448 57.8973 19.9635 57.0394 19.9635H54.6484C54.3563 19.9635 54.1373 19.8724 53.9548 19.7083H53.973ZM57.0029 18.7604C57.4228 18.7604 57.7513 18.6328 57.9703 18.3958C58.1894 18.1589 58.2989 17.7943 58.2989 17.3203V15.4974C58.2989 15.1146 58.1711 14.8229 57.9338 14.5859C57.6965 14.3672 57.368 14.2396 56.9664 14.2396H55.0682V18.7422H57.0029V18.7604Z" fill="white"/>
<path d="M60.9277 19.6536C60.6174 19.3984 60.4531 19.0521 60.4531 18.6328V18.2682C60.4531 17.8489 60.6174 17.5208 60.9459 17.2656C61.2745 17.0104 61.7126 16.8828 62.2419 16.8828H62.8442C63.0085 16.8828 63.2093 16.901 63.3918 16.9557C63.5926 17.0104 63.7751 17.0651 63.9394 17.138V16.6276C63.9394 16.4635 63.8846 16.3359 63.7751 16.2265C63.6656 16.1172 63.5196 16.0807 63.337 16.0807H62.4792C62.2966 16.0807 62.1506 16.1172 62.0411 16.2083C61.9316 16.2995 61.8768 16.4088 61.8768 16.5547H60.5809C60.5809 16.0807 60.7634 15.6797 61.1102 15.388C61.457 15.0963 61.9316 14.9505 62.4974 14.9505H63.3553C63.9394 14.9505 64.3957 15.0963 64.7607 15.4062C65.1075 15.7161 65.2901 16.1172 65.2901 16.6276V19.9635H64.0489V19.3802C63.8846 19.5807 63.7021 19.7448 63.4648 19.8724C63.2275 20 63.0085 20.0547 62.7895 20.0547H62.1689C61.6578 20.0547 61.238 19.9271 60.9277 19.6719V19.6536ZM62.8807 19.0156C63.118 19.0156 63.337 18.9609 63.5378 18.8333C63.7203 18.7057 63.8664 18.5416 63.9576 18.3229V18.1588C63.8481 18.0859 63.7021 18.013 63.5196 17.9765C63.337 17.9219 63.1363 17.9036 62.9172 17.9036H62.2966C62.1324 17.9036 62.0046 17.9401 61.9133 18.013C61.8221 18.0859 61.7673 18.1953 61.7673 18.3229V18.5781C61.7673 18.7057 61.8221 18.7969 61.9316 18.888C62.0411 18.9609 62.1871 18.9974 62.3696 18.9974H62.899L62.8807 19.0156Z" fill="white"/>
<path d="M67.2621 19.5807C66.9883 19.3255 66.8605 18.9062 66.8605 18.3594V16.1901H65.9844V15.0417H66.897V13.5469H68.1929V15.0417H69.4706V16.1901H68.1929V18.2865C68.1929 18.4687 68.2294 18.6146 68.3025 18.6875C68.3755 18.7786 68.485 18.8151 68.631 18.8151H69.4889V19.9635H68.5397C67.9557 19.9635 67.5358 19.8359 67.2621 19.5625V19.5807Z" fill="white"/>
<path d="M70.6386 19.6536C70.3283 19.3984 70.1641 19.0521 70.1641 18.6328V18.2682C70.1641 17.8489 70.3283 17.5208 70.6569 17.2656C70.9854 17.0104 71.4235 16.8828 71.9528 16.8828H72.5552C72.7194 16.8828 72.9202 16.901 73.1027 16.9557C73.3035 17.0104 73.486 17.0651 73.6503 17.138V16.6276C73.6503 16.4635 73.5956 16.3359 73.486 16.2265C73.3765 16.1172 73.2305 16.0807 73.048 16.0807H72.1901C72.0076 16.0807 71.8616 16.1172 71.752 16.2083C71.6425 16.2995 71.5878 16.4088 71.5878 16.5547H70.2918C70.2918 16.0807 70.4744 15.6797 70.8212 15.388C71.168 15.0963 71.6425 14.9505 72.2084 14.9505H73.0662C73.6503 14.9505 74.1066 15.0963 74.4717 15.4062C74.8185 15.7161 75.001 16.1172 75.001 16.6276V19.9635H73.7598V19.3802C73.5956 19.5807 73.413 19.7448 73.1757 19.8724C72.9385 20 72.7194 20.0547 72.5004 20.0547H71.8798C71.3687 20.0547 70.9489 19.9271 70.6386 19.6719V19.6536ZM72.5917 19.0156C72.8289 19.0156 73.048 18.9609 73.2488 18.8333C73.4313 18.7057 73.5773 18.5416 73.6686 18.3229V18.1588C73.5591 18.0859 73.413 18.013 73.2305 17.9765C73.048 17.9219 72.8472 17.9036 72.6282 17.9036H72.0076C71.8433 17.9036 71.7155 17.9401 71.6243 18.013C71.533 18.0859 71.4783 18.1953 71.4783 18.3229V18.5781C71.4783 18.7057 71.533 18.7969 71.6425 18.888C71.752 18.9609 71.8981 18.9974 72.0806 18.9974H72.6099L72.5917 19.0156Z" fill="white"/>
<path d="M12.8316 9.5H1.20467C0.547578 9.5 0 10.0286 0 10.7031V22.3151C0 22.9714 0.529326 23.5 1.18642 23.5H12.8133C13.4704 23.5 13.9998 22.9714 13.9998 22.3151V10.7031C13.9998 10.0469 13.4704 9.51823 12.8133 9.51823L12.8316 9.5ZM11.6999 19.8177C11.6999 20.5833 11.0793 21.2031 10.3127 21.2031H2.31808V20.3464C2.31808 19.5078 2.99343 18.8333 3.83305 18.8333H4.1616V19.362H8.72475C9.34534 19.362 9.85641 18.8516 9.85641 18.2318V16.5H10.3127C11.0793 16.5 11.6999 17.1198 11.6999 17.8854V19.8177ZM5.89559 17.6302V15.3698H7.99465C8.08591 15.3698 8.14067 15.4427 8.14067 15.5156V17.4661C8.14067 17.5573 8.06766 17.612 7.99465 17.612H5.89559V17.6302ZM11.6999 12.6719C11.6999 13.5104 11.0246 14.1849 10.185 14.1849H9.69214C9.49136 13.8568 9.14456 13.638 8.72475 13.638H4.1616V16.5H3.70528C2.93867 16.5 2.31808 15.8802 2.31808 15.1146V13.1823C2.31808 12.4167 2.93867 11.7969 3.70528 11.7969H11.6999V12.6719Z" fill="white"/>
</g>
<defs>
<clipPath id="clip0_12240_41945">
<rect width="75" height="14" fill="white" transform="translate(0 9.5)"/>
</clipPath>
</defs>
</svg>
